<?xml version="1.0" standalone="no"?>
<!DOCTYPE svg PUBLIC "-//W3C//DTD SVG 1.1//EN" "http://www.w3.org/Graphics/SVG/1.1/DTD/svg11.dtd" >
<svg xmlns="http://www.w3.org/2000/svg">
<metadata>Generated by IcoMoon</metadata>
<defs>
<font id="imwap" horiz-adv-x="1024">
<font-face units-per-em="1024" ascent="960" descent="-64" />
<missing-glyph horiz-adv-x="1024" />
<glyph unicode="&#x20;" horiz-adv-x="512" d="" />
<glyph unicode="&#xe000;" glyph-name="error" d="M512-42.666c-260.267 0-469.333 209.067-469.333 469.333s209.067 469.333 469.333 469.333 469.333-209.067 469.333-469.333-209.067-469.333-469.333-469.333zM512 810.667c-213.333 0-384-170.667-384-384s170.667-384 384-384c213.333 0 384 170.667 384 384s-170.667 384-384 384zM512 384c-25.6 0-42.667 17.067-42.667 42.667v170.667c0 25.6 17.067 42.667 42.667 42.667s42.667-17.067 42.667-42.667v-170.667c0-25.6-17.067-42.667-42.667-42.667zM512 213.334c-4.267 0-12.8 0-17.067 4.267-4.267 0-8.533 4.267-12.8 8.533-8.533 8.533-12.8 17.067-12.8 29.867 0 4.267 0 12.8 4.267 17.067s4.267 8.533 8.533 12.8c4.267 4.267 8.533 8.533 12.8 8.533 8.533 4.267 21.333 4.267 34.133 0 4.267 0 8.533-4.267 12.8-8.533s8.533-8.533 8.533-12.8c0-4.267 4.267-8.533 4.267-17.067 0-12.8-4.267-21.333-12.8-29.867s-17.067-12.8-29.867-12.8z" />
<glyph unicode="&#xe034;" glyph-name="pause" d="M598 724.667h170v-596h-170v596zM256 128.667v596h170v-596h-170z" />
<glyph unicode="&#xe037;" glyph-name="play_arrow" d="M874.667 452.267c8.533 0 12.8-8.533 17.067-12.8s4.267-12.8 4.267-21.333c0-8.533 0-12.8-4.267-17.067s-8.533-12.8-17.067-17.067l-597.333-384c-4.267-4.267-4.267-4.267-8.533-8.533s-8.533-4.267-12.8-4.267c-4.267 0-8.533 0-8.533 0-4.267 0-8.533 0-8.533 4.267-8.533 4.267-12.8 8.533-17.067 17.067s-4.267 12.8-4.267 21.333v768c0 8.533 0 17.067 4.267 21.333s8.533 8.533 17.067 12.8c8.533 4.267 12.8 4.267 21.333 4.267s12.8 0 21.333-4.267l593.067-379.733zM298.667 110.934l477.867 307.2-477.867 307.2v-614.4z" />
<glyph unicode="&#xe04d;" glyph-name="volume_down" d="M214 554.667h170l214 214v-684l-214 214h-170v256zM790 426.667c0-76-44-140-108-172v344c64-32 108-96 108-172z" />
<glyph unicode="&#xe04e;" glyph-name="volume_mute" d="M298 554.667h172l212 214v-684l-212 214h-172v256z" />
<glyph unicode="&#xe04f;" glyph-name="volume_off" d="M512 768.667v-180l-90 90zM182 810.667l714-714-54-54-88 88c-46-36-98-64-156-78v88c36 10 68 28 96 50l-182 182v-288l-214 214h-170v256h202l-202 202zM810 426.667c0 136-88 250-212 286v88c172-38 298-192 298-374 0-64-16-126-44-178l-64 66c14 34 22 72 22 112zM704 426.667c0-10 0-18-2-26l-104 104v94c64-32 106-96 106-172z" />
<glyph unicode="&#xe050;" glyph-name="volume_up" d="M598 800.667c172-38 298-192 298-374s-126-336-298-374v88c124 36 212 150 212 286s-88 250-212 286v88zM704 426.667c0-76-42-140-106-172v344c64-32 106-96 106-172zM128 554.667h170l214 214v-684l-214 214h-170v256z" />
<glyph unicode="&#xe164;" glyph-name="sort" d="M640 384h-512c-25.6 0-42.667 17.067-42.667 42.667s17.067 42.667 42.667 42.667h512c25.6 0 42.667-17.067 42.667-42.667s-17.067-42.667-42.667-42.667zM896 640h-768c-25.6 0-42.667 17.067-42.667 42.667s17.067 42.667 42.667 42.667h768c25.6 0 42.667-17.067 42.667-42.667s-17.067-42.667-42.667-42.667zM384 128h-256c-25.6 0-42.667 17.067-42.667 42.667s17.067 42.667 42.667 42.667h256c25.6 0 42.667-17.067 42.667-42.667s-17.067-42.667-42.667-42.667z" />
<glyph unicode="&#xe254;" glyph-name="edit" d="M341.333-0h-213.333c-25.6 0-42.667 17.067-42.667 42.667v213.333c0 12.8 4.267 21.333 12.8 29.867l554.667 554.667c17.067 17.067 42.667 17.067 59.733 0l213.333-213.333c17.067-17.067 17.067-42.667 0-59.733l-554.667-554.667c-8.533-8.533-17.067-12.8-29.867-12.8zM170.667 85.334h153.6l512 512-153.6 153.6-512-512v-153.6z" />
<glyph unicode="&#xe410;" glyph-name="photo" d="M810.667 853.334h-597.333c-72.533 0-128-55.467-128-128v-597.333c0-72.533 55.467-128 128-128h597.333c72.533 0 128 55.467 128 128v597.333c0 72.533-55.467 128-128 128zM170.667 725.334c0 25.6 17.067 42.667 42.667 42.667h597.333c25.6 0 42.667-17.067 42.667-42.667v-324.267l-140.8 140.8c-17.067 17.067-42.667 17.067-59.733 0l-452.267-452.267c-17.067 4.267-29.867 17.067-29.867 38.4v597.333zM810.667 85.334h-494.933l366.933 366.933 170.667-170.667v-153.6c0-25.6-17.067-42.667-42.667-42.667zM362.667 469.334c59.733 0 106.667 46.933 106.667 106.667s-46.933 106.667-106.667 106.667-106.667-46.933-106.667-106.667c0-59.733 46.933-106.667 106.667-106.667zM362.667 597.334c12.8 0 21.333-8.533 21.333-21.333s-8.533-21.333-21.333-21.333-21.333 8.533-21.333 21.333 8.533 21.333 21.333 21.333z" />
<glyph unicode="&#xe5ca;" glyph-name="check" d="M384 170.667c-12.8 0-21.333 4.267-29.867 12.8l-213.333 213.333c-17.067 17.067-17.067 42.667 0 59.733s42.667 17.067 59.733 0l183.467-183.467 439.467 439.467c17.067 17.067 42.667 17.067 59.733 0s17.067-42.667 0-59.733l-469.333-469.333c-8.533-8.533-17.067-12.8-29.867-12.8z" />
<glyph unicode="&#xe5d0;" glyph-name="fullscreen" d="M598 724.667h212v-212h-84v128h-128v84zM726 212.667v128h84v-212h-212v84h128zM214 512.667v212h212v-84h-128v-128h-84zM298 340.667v-128h128v-84h-212v212h84z" />
<glyph unicode="&#xe5d1;" glyph-name="fullscreen_exit" d="M682 596.667h128v-84h-212v212h84v-128zM598 128.667v212h212v-84h-128v-128h-84zM342 596.667v128h84v-212h-212v84h128zM214 256.667v84h212v-212h-84v128h-128z" />
<glyph unicode="&#xe5d3;" glyph-name="more_horiz" d="M597.333 426.667c0-47.128-38.205-85.333-85.333-85.333s-85.333 38.205-85.333 85.333c0 47.128 38.205 85.333 85.333 85.333s85.333-38.205 85.333-85.333zM896 426.667c0-47.128-38.205-85.333-85.333-85.333s-85.333 38.205-85.333 85.333c0 47.128 38.205 85.333 85.333 85.333s85.333-38.205 85.333-85.333zM298.667 426.667c0-47.128-38.205-85.333-85.333-85.333s-85.333 38.205-85.333 85.333c0 47.128 38.205 85.333 85.333 85.333s85.333-38.205 85.333-85.333z" />
<glyph unicode="&#xe5d4;" glyph-name="more_vert" d="M597.333 426.667c0-47.128-38.205-85.333-85.333-85.333s-85.333 38.205-85.333 85.333c0 47.128 38.205 85.333 85.333 85.333s85.333-38.205 85.333-85.333zM597.333 725.334c0-47.128-38.205-85.333-85.333-85.333s-85.333 38.205-85.333 85.333c0 47.128 38.205 85.333 85.333 85.333s85.333-38.205 85.333-85.333zM597.333 128c0-47.128-38.205-85.333-85.333-85.333s-85.333 38.205-85.333 85.333c0 47.128 38.205 85.333 85.333 85.333s85.333-38.205 85.333-85.333z" />
<glyph unicode="&#xe80d;" glyph-name="share" d="M768-42.666h-512c-72.533 0-128 55.467-128 128v341.333c0 25.6 17.067 42.667 42.667 42.667s42.667-17.067 42.667-42.667v-341.333c0-25.6 17.067-42.667 42.667-42.667h512c25.6 0 42.667 17.067 42.667 42.667v341.333c0 25.6 17.067 42.667 42.667 42.667s42.667-17.067 42.667-42.667v-341.333c0-72.533-55.467-128-128-128zM682.667 640c-12.8 0-21.333 4.267-29.867 12.8l-140.8 140.8-140.8-140.8c-17.067-17.067-42.667-17.067-59.733 0s-17.067 42.667 0 59.733l170.667 170.667c17.067 17.067 42.667 17.067 59.733 0l170.667-170.667c17.067-17.067 17.067-42.667 0-59.733-8.533-8.533-17.067-12.8-29.867-12.8zM512 256c-25.6 0-42.667 17.067-42.667 42.667v554.667c0 25.6 17.067 42.667 42.667 42.667s42.667-17.067 42.667-42.667v-554.667c0-25.6-17.067-42.667-42.667-42.667z" />
<glyph unicode="&#xe834;" glyph-name="checkbox" d="M512 298.667c-12.8 0-21.333 4.267-29.867 12.8l-128 128c-17.067 17.067-17.067 42.667 0 59.733s42.667 17.067 59.733 0l98.133-98.133 396.8 396.8c17.067 17.067 42.667 17.067 59.733 0s17.067-42.667 0-59.733l-426.667-426.667c-8.533-8.533-17.067-12.8-29.867-12.8zM810.667-0h-597.333c-72.533 0-128 55.467-128 128v597.333c0 72.533 55.467 128 128 128h469.333c25.6 0 42.667-17.067 42.667-42.667s-17.067-42.667-42.667-42.667h-469.333c-25.6 0-42.667-17.067-42.667-42.667v-597.333c0-25.6 17.067-42.667 42.667-42.667h597.333c25.6 0 42.667 17.067 42.667 42.667v298.667c0 25.6 17.067 42.667 42.667 42.667s42.667-17.067 42.667-42.667v-298.667c0-72.533-55.467-128-128-128z" />
<glyph unicode="&#xe835;" glyph-name="checkbox_o" d="M810.667-0h-597.333c-72.533 0-128 55.467-128 128v597.333c0 72.533 55.467 128 128 128h597.333c72.533 0 128-55.467 128-128v-597.333c0-72.533-55.467-128-128-128zM213.333 768c-25.6 0-42.667-17.067-42.667-42.667v-597.333c0-25.6 17.067-42.667 42.667-42.667h597.333c25.6 0 42.667 17.067 42.667 42.667v597.333c0 25.6-17.067 42.667-42.667 42.667h-597.333z" />
<glyph unicode="&#xe836;" glyph-name="radiobutton_o" d="M512-42.666c-260.267 0-469.333 209.067-469.333 469.333s209.067 469.333 469.333 469.333 469.333-209.067 469.333-469.333-209.067-469.333-469.333-469.333zM512 810.667c-213.333 0-384-170.667-384-384s170.667-384 384-384c213.333 0 384 170.667 384 384s-170.667 384-384 384z" />
<glyph unicode="&#xe837;" glyph-name="radiobutton" d="M512-42.666c-260.267 0-469.333 209.067-469.333 469.333s209.067 469.333 469.333 469.333 469.333-209.067 469.333-469.333-209.067-469.333-469.333-469.333zM512 810.667c-213.333 0-384-170.667-384-384s170.667-384 384-384c213.333 0 384 170.667 384 384s-170.667 384-384 384zM682.667 426.667c0-94.257-76.41-170.667-170.667-170.667s-170.667 76.41-170.667 170.667c0 94.257 76.41 170.667 170.667 170.667s170.667-76.41 170.667-170.667z" />
<glyph unicode="&#xe838;" glyph-name="star" d="M776.533-0c-8.533 0-12.8 0-21.333 4.267l-243.2 128-243.2-128c-12.8-8.533-29.867-4.267-46.933 4.267-12.8 8.533-21.333 25.6-17.067 42.667l46.933 273.067-196.267 187.733c-12.8 12.8-17.067 29.867-12.8 42.667 4.267 17.067 17.067 25.6 34.133 29.867l273.067 38.4 123.733 247.467c12.8 29.867 64 29.867 76.8 0l123.733-247.467 273.067-38.4c12.8 0 25.6-12.8 34.133-29.867 4.267-17.067 0-34.133-12.8-42.667l-196.267-192 46.933-273.067c4.267-17.067-4.267-34.133-17.067-42.667-8.533-4.267-17.067-4.267-25.6-4.267zM174.933 512l149.333-149.333c12.8-8.533 17.067-21.333 17.067-34.133l-34.133-209.067 187.733 98.133c12.8 8.533 25.6 8.533 38.4 0l187.733-98.133-38.4 209.067c-4.267 12.8 4.267 29.867 12.8 38.4l149.333 149.333-209.067 29.867c-12.8 0-25.6 12.8-34.133 21.333l-89.6 187.733-93.867-187.733c-4.267-12.8-17.067-21.333-29.867-21.333l-213.333-34.133z" />
<glyph unicode="&#xe86c;" glyph-name="check_circle" d="M512-42.666c0 0 0 0 0 0-260.267 0-469.333 209.067-469.333 469.333s209.067 469.333 469.333 469.333c0 0 0 0 0 0 68.267 0 132.267-12.8 192-42.667 21.333-8.533 29.867-34.133 21.333-55.467s-34.133-29.867-55.467-21.333c-51.2 21.333-102.4 34.133-157.867 34.133 0 0 0 0 0 0-213.333 0-384-170.667-384-384s170.667-384 384-384c0 0 0 0 0 0 213.333 0 384 170.667 384 384v38.4c0 25.6 17.067 42.667 42.667 42.667s42.667-17.067 42.667-42.667v-38.4c0-260.267-209.067-469.333-469.333-469.333zM512 298.667c-12.8 0-21.333 4.267-29.867 12.8l-128 128c-17.067 17.067-17.067 42.667 0 59.733s42.667 17.067 59.733 0l98.133-98.133 396.8 396.8c17.067 17.067 42.667 17.067 59.733 0s17.067-42.667 0-59.733l-426.667-426.667c-8.533-8.533-17.067-12.8-29.867-12.8z" />
<glyph unicode="&#xe86f;" glyph-name="code" d="M682.667 128c-12.8 0-21.333 4.267-29.867 12.8-17.067 17.067-17.067 42.667 0 59.733l226.133 226.133-226.133 226.133c-17.067 17.067-17.067 42.667 0 59.733s42.667 17.067 59.733 0l256-256c17.067-17.067 17.067-42.667 0-59.733l-256-256c-8.533-8.533-17.067-12.8-29.867-12.8zM341.333 128c-12.8 0-21.333 4.267-29.867 12.8l-256 256c-17.067 17.067-17.067 42.667 0 59.733l256 256c17.067 17.067 42.667 17.067 59.733 0s17.067-42.667 0-59.733l-226.133-226.133 226.133-226.133c17.067-17.067 17.067-42.667 0-59.733-8.533-8.533-17.067-12.8-29.867-12.8z" />
<glyph unicode="&#xe87d;" glyph-name="favorite" d="M512-8.533c-12.8 0-21.333 4.267-29.867 12.8l-375.467 375.467c-51.2 51.2-81.067 123.733-81.067 196.267s29.867 145.067 81.067 196.267 119.467 81.067 192 81.067c72.533 0 145.067-29.867 196.267-81.067l17.067-17.067 17.067 17.067c0 0 0 0 0 0 51.2 51.2 119.467 81.067 196.267 81.067v0c72.533 0 145.067-29.867 196.267-81.067v0c106.667-106.667 106.667-285.867 0-392.533l-375.467-375.467c-12.8-8.533-21.333-12.8-34.133-12.8zM298.667 768c-46.933 0-98.133-17.067-132.267-55.467-76.8-76.8-76.8-196.267 0-273.067l345.6-345.6 345.6 345.6c38.4 38.4 55.467 85.333 55.467 136.533s-21.333 98.133-55.467 136.533v0c-34.133 34.133-81.067 55.467-132.267 55.467 0 0 0 0 0 0-51.2 0-98.133-21.333-136.533-55.467v0c0 0 0 0 0 0l-42.667-46.933c-17.067-17.067-42.667-17.067-59.733 0l-46.933 46.933c-38.4 38.4-89.6 55.467-140.8 55.467z" />
<glyph unicode="&#xe8b6;" glyph-name="search" d="M925.867 72.534l-183.467 183.467c-4.267 4.267-4.267 4.267-8.533 4.267 51.2 64 81.067 140.8 81.067 226.133-4.267 204.8-166.4 366.933-366.933 366.933s-362.667-162.133-362.667-362.667c0-200.533 162.133-362.667 362.667-362.667 85.333 0 162.133 29.867 226.133 81.067 0-4.267 4.267-8.533 4.267-8.533l183.467-183.467c8.533-8.533 21.333-12.8 29.867-12.8s21.333 4.267 29.867 12.8 21.333 38.4 4.267 55.467zM448 213.334c-153.6 0-277.333 123.733-277.333 277.333s123.733 277.333 277.333 277.333 277.333-123.733 277.333-277.333-123.733-277.333-277.333-277.333z" />
<glyph unicode="&#xe8cc;" glyph-name="cart" d="M426.667 42.667c0-47.128-38.205-85.333-85.333-85.333s-85.333 38.205-85.333 85.333c0 47.128 38.205 85.333 85.333 85.333s85.333-38.205 85.333-85.333zM938.667 42.667c0-47.128-38.205-85.333-85.333-85.333s-85.333 38.205-85.333 85.333c0 47.128 38.205 85.333 85.333 85.333s85.333-38.205 85.333-85.333zM827.733 213.334h-413.867c-64 0-115.2 42.667-128 102.4l-106.667 494.933h-136.533c-25.6 0-42.667 17.067-42.667 42.667s17.067 42.667 42.667 42.667h170.667c21.333 0 38.4-12.8 42.667-34.133l115.2-529.067c4.267-29.867 34.133-34.133 42.667-34.133h413.867c21.333 0 38.4 12.8 42.667 34.133l59.733 307.2h-503.467c-25.6 0-42.667 17.067-42.667 42.667s17.067 42.667 42.667 42.667h554.667c12.8 0 25.6-4.267 34.133-17.067 8.533-8.533 8.533-21.333 8.533-34.133l-68.267-358.4c-12.8-59.733-68.267-102.4-128-102.4z" />
<glyph unicode="&#xe8db;" glyph-name="thumb_down" d="M554.667-42.666c-93.867 0-170.667 76.8-170.667 170.667v128h-200.533c-8.533 0-12.8 0-21.333 0-68.267 8.533-119.467 76.8-106.667 145.067l59.733 384c12.8 64 64 110.933 128 110.933h593.067c0 0 0 0 4.267 0 68.267 0 128-51.2 140.8-123.733 0 0 0-4.267 0-4.267v-298.667c0 0 0-4.267 0-4.267-8.533-72.533-72.533-123.733-140.8-123.733h-85.333l-157.867-358.4c-8.533-17.067-25.6-25.6-42.667-25.6zM426.667 341.334c25.6 0 42.667-17.067 42.667-42.667v-170.667c0-38.4 25.6-68.267 59.733-81.067l153.6 345.6v418.133h-439.467c-21.333 0-38.4-17.067-42.667-38.4l-59.733-384c-4.267-21.333 12.8-46.933 34.133-46.933 4.267 0 4.267 0 8.533 0h243.2zM768 426.667h72.533c29.867 0 51.2 17.067 55.467 46.933v290.133c-4.267 25.6-29.867 46.933-55.467 46.933h-72.533v-384z" />
<glyph unicode="&#xe8dc;" glyph-name="thumb_up" d="M780.8-42.666c0 0 0 0 0 0h-610.133c-72.533 0-128 55.467-128 128v298.667c0 72.533 55.467 128 128 128h102.4l157.867 358.4c4.267 17.067 21.333 25.6 38.4 25.6 93.867 0 170.667-76.8 170.667-170.667v-128h200.533c8.533 0 12.8 0 21.333 0 34.133-4.267 64-21.333 85.333-51.2 21.333-25.6 29.867-59.733 21.333-93.867l-59.733-384c-12.8-64-64-110.933-128-110.933zM341.333 42.667h439.467c0 0 0 0 0 0 21.333 0 38.4 17.067 42.667 34.133l59.733 384c0 12.8 0 21.333-8.533 29.867s-17.067 17.067-29.867 17.067c-4.267 0-4.267 0-8.533 0h-238.933c-25.6 0-42.667 17.067-42.667 42.667v174.933c0 38.4-25.6 68.267-59.733 81.067l-153.6-345.6v-418.133zM170.667 426.667c-25.6 0-42.667-17.067-42.667-42.667v-298.667c0-25.6 17.067-42.667 42.667-42.667h85.333v384h-85.333z" />
<glyph unicode="&#xe8f4;" glyph-name="visibility" d="M512 42.667c-320 0-499.2 349.867-507.733 366.933-4.267 12.8-4.267 25.6 0 38.4 8.533 12.8 187.733 362.667 507.733 362.667s499.2-349.867 507.733-366.933c4.267-12.8 4.267-25.6 0-38.4-8.533-12.8-187.733-362.667-507.733-362.667zM89.6 426.667c38.4-68.267 192-298.667 422.4-298.667s379.733 230.4 422.4 298.667c-38.4 68.267-192 298.667-422.4 298.667s-379.733-230.4-422.4-298.667zM512 256c-93.867 0-170.667 76.8-170.667 170.667s76.8 170.667 170.667 170.667c93.867 0 170.667-76.8 170.667-170.667s-76.8-170.667-170.667-170.667zM512 512c-46.933 0-85.333-38.4-85.333-85.333s38.4-85.333 85.333-85.333c46.933 0 85.333 38.4 85.333 85.333s-38.4 85.333-85.333 85.333z" />
<glyph unicode="&#xe8f5;" glyph-name="visibility_off" d="M512 42.667c-320 0-499.2 349.867-507.733 366.933-4.267 12.8-4.267 25.6 0 38.4 55.467 102.4 132.267 192 230.4 264.533 17.067 17.067 42.667 12.8 59.733-8.533 12.8-17.067 12.8-46.933-8.533-59.733-81.067-59.733-145.067-132.267-196.267-217.6 38.4-68.267 192-298.667 422.4-298.667 81.067 0 162.133 29.867 226.133 81.067 17.067 12.8 46.933 8.533 59.733-8.533s8.533-46.933-8.533-59.733c-76.8-64-174.933-98.133-277.333-98.133zM887.467 247.467c-8.533 0-21.333 4.267-25.6 8.533-17.067 17.067-21.333 42.667-4.267 59.733 29.867 34.133 55.467 68.267 76.8 106.667-38.4 68.267-192 298.667-422.4 298.667-25.6 0-55.467-4.267-81.067-8.533-21.333 0-42.667 12.8-51.2 34.133-4.267 25.6 8.533 46.933 34.133 51.2 29.867 8.533 64 12.8 98.133 12.8 320 0 499.2-349.867 507.733-366.933 4.267-12.8 4.267-25.6 0-38.4-25.6-51.2-59.733-98.133-98.133-145.067-8.533-8.533-21.333-12.8-34.133-12.8zM507.733 251.734c-42.667 0-85.333 17.067-115.2 46.933-34.133 29.867-51.2 72.533-55.467 119.467 0 46.933 12.8 89.6 46.933 123.733 4.267 4.267 4.267 4.267 8.533 8.533 17.067 17.067 42.667 17.067 59.733 0s17.067-42.667 0-59.733c0 0-4.267-4.267-4.267-4.267-17.067-17.067-25.6-38.4-21.333-59.733 0-21.333 8.533-42.667 25.6-59.733s38.4-25.6 59.733-21.333c21.333 0 42.667 8.533 59.733 25.6s42.667 17.067 59.733 0c17.067-17.067 17.067-42.667 0-59.733-29.867-34.133-72.533-51.2-119.467-55.467 0-4.267 0-4.267-4.267-4.267zM981.333-85.333c-12.8 0-21.333 4.267-29.867 12.8l-938.667 938.667c-17.067 17.067-17.067 42.667 0 59.733s42.667 17.067 59.733 0l938.667-938.667c17.067-17.067 17.067-42.667 0-59.733-8.533-8.533-17.067-12.8-29.867-12.8z" />
<glyph unicode="&#xe900;" glyph-name="panorama-fisheye" d="M512 682.667c140.8 0 256-115.2 256-256s-115.2-256-256-256-256 115.2-256 256 115.2 256 256 256zM512 853.334c-234.667 0-426.667-192-426.667-426.667s192-426.667 426.667-426.667 426.667 192 426.667 426.667-192 426.667-426.667 426.667v0z" />
<glyph unicode="&#xe901;" glyph-name="Progress2" d="M512 853.334c-234.667 0-426.667-192-426.667-426.667s192-426.667 426.667-426.667 426.667 192 426.667 426.667-192 426.667-426.667 426.667zM256 426.667c0 140.8 115.2 256 256 256s256-115.2 256-256h-512z" />
<glyph unicode="&#xe902;" glyph-name="insert_drive_file" d="M891.733 571.734c-4.267 4.267-4.267 8.533-8.533 12.8l-298.667 298.667c-4.267 4.267-8.533 8.533-12.8 8.533-4.267 4.267-12.8 4.267-17.067 4.267h-298.667c-72.533 0-128-55.467-128-128v-682.667c0-72.533 55.467-128 128-128h512c72.533 0 128 55.467 128 128v469.333c0 4.267 0 12.8-4.267 17.067zM597.333 750.934l153.6-153.6h-153.6v153.6zM768 42.667h-512c-25.6 0-42.667 17.067-42.667 42.667v682.667c0 25.6 17.067 42.667 42.667 42.667h256v-256c0-25.6 17.067-42.667 42.667-42.667h256v-426.667c0-25.6-17.067-42.667-42.667-42.667z" />
<glyph unicode="&#xe903;" glyph-name="arrow_l" d="M640 128c-12.8 0-21.333 4.267-29.867 12.8l-256 256c-17.067 17.067-17.067 42.667 0 59.733l256 256c17.067 17.067 42.667 17.067 59.733 0s17.067-42.667 0-59.733l-226.133-226.133 226.133-226.133c17.067-17.067 17.067-42.667 0-59.733-8.533-8.533-17.067-12.8-29.867-12.8z" />
<glyph unicode="&#xe904;" glyph-name="imwap-Center" d="M512 938.667c-281.6 0-512-230.4-512-512s230.4-512 512-512 512 230.4 512 512-230.4 512-512 512zM401.067 652.8c0 64 51.2 115.2 110.933 115.2 64 0 110.933-51.2 110.933-110.933v-110.933c0-64-51.2-110.933-110.933-110.933-64 0-110.933 51.2-110.933 110.933v106.667zM512 25.6c-136.533 0-251.733 68.267-328.533 170.667 72.533 102.4 192 170.667 328.533 170.667s256-68.267 328.533-170.667c-76.8-98.133-192-170.667-328.533-170.667z" />
<glyph unicode="&#xe905;" glyph-name="nav_menu" d="M896 384h-768c-25.6 0-42.667 17.067-42.667 42.667s17.067 42.667 42.667 42.667h768c25.6 0 42.667-17.067 42.667-42.667s-17.067-42.667-42.667-42.667zM896 640h-768c-25.6 0-42.667 17.067-42.667 42.667s17.067 42.667 42.667 42.667h768c25.6 0 42.667-17.067 42.667-42.667s-17.067-42.667-42.667-42.667zM896 128h-768c-25.6 0-42.667 17.067-42.667 42.667s17.067 42.667 42.667 42.667h768c25.6 0 42.667-17.067 42.667-42.667s-17.067-42.667-42.667-42.667z" />
<glyph unicode="&#xe906;" glyph-name="comment" d="M128-0c-4.267 0-12.8 0-17.067 4.267-17.067 4.267-25.6 21.333-25.6 38.4v682.667c0 72.533 55.467 128 128 128h597.333c72.533 0 128-55.467 128-128v-426.667c0-72.533-55.467-128-128-128h-494.933l-157.867-157.867c-8.533-8.533-17.067-12.8-29.867-12.8zM213.333 768c-25.6 0-42.667-17.067-42.667-42.667v-580.267l98.133 98.133c8.533 8.533 17.067 12.8 29.867 12.8h512c25.6 0 42.667 17.067 42.667 42.667v426.667c0 25.6-17.067 42.667-42.667 42.667h-597.333z" />
<glyph unicode="&#xe907;" glyph-name="add_question" d="M810.667 853.334h-597.333c-72.533 0-128-55.467-128-128v-682.667c0-17.067 8.533-34.133 25.6-38.4 4.267-4.267 12.8-4.267 17.067-4.267 12.8 0 21.333 4.267 29.867 12.8l157.867 157.867h494.933c72.533 0 128 55.467 128 128v426.667c0 72.533-55.467 128-128 128zM853.333 298.667c0-25.6-17.067-42.667-42.667-42.667h-512c-12.8 0-21.333-4.267-29.867-12.8l-98.133-98.133v580.267c0 25.6 17.067 42.667 42.667 42.667h597.333c25.6 0 42.667-17.067 42.667-42.667v-426.667zM640 554.667h-85.333v85.333c0 25.6-17.067 42.667-42.667 42.667s-42.667-17.067-42.667-42.667v-85.333h-85.333c-25.6 0-42.667-17.067-42.667-42.667s17.067-42.667 42.667-42.667h85.333v-85.333c0-25.6 17.067-42.667 42.667-42.667s42.667 17.067 42.667 42.667v85.333h85.333c25.6 0 42.667 17.067 42.667 42.667s-17.067 42.667-42.667 42.667z" />
<glyph unicode="&#xe908;" glyph-name="close" d="M256 128c-12.8 0-21.333 4.267-29.867 12.8-17.067 17.067-17.067 42.667 0 59.733l512 512c17.067 17.067 42.667 17.067 59.733 0s17.067-42.667 0-59.733l-512-512c-8.533-8.533-17.067-12.8-29.867-12.8zM768 128c-12.8 0-21.333 4.267-29.867 12.8l-512 512c-17.067 17.067-17.067 42.667 0 59.733s42.667 17.067 59.733 0l512-512c17.067-17.067 17.067-42.667 0-59.733-8.533-8.533-17.067-12.8-29.867-12.8z" />
<glyph unicode="&#xe909;" glyph-name="weibo" d="M832 554.667c-25.6 0-42.667 17.067-42.667 42.667 0 59.733-46.933 106.667-106.667 106.667-25.6 0-42.667 17.067-42.667 42.667s17.067 42.667 42.667 42.667c102.4 0 192-89.6 192-192 0-25.6-17.067-42.667-42.667-42.667zM981.333 554.667c-25.6 0-42.667 17.067-42.667 42.667 0 145.067-110.933 256-256 256-25.6 0-42.667 17.067-42.667 42.667s17.067 42.667 42.667 42.667c192 0 341.333-149.333 341.333-341.333 0-25.6-17.067-42.667-42.667-42.667zM448-81.066c-166.4 0-290.133 25.6-384 145.067-38.4 46.933-140.8 226.133 42.667 494.933 76.8 110.933 179.2 187.733 264.533 200.533 38.4 8.533 72.533 0 98.133-21.333 38.4-29.867 55.467-81.067 51.2-149.333 68.267 17.067 132.267 4.267 166.4-38.4l4.267-4.267c21.333-34.133 25.6-72.533 21.333-110.933 136.533-17.067 226.133-76.8 226.133-157.867 0-157.867-230.4-358.4-490.667-358.4zM392.533 678.4c-4.267 0-4.267 0-8.533 0-51.2-8.533-136.533-59.733-209.067-166.4-102.4-149.333-119.467-298.667-46.933-396.8 64-85.333 149.333-115.2 315.733-115.2 221.867 0 405.333 166.4 405.333 273.067 0 34.133-81.067 72.533-200.533 76.8l-68.267 4.267 34.133 59.733c12.8 25.6 17.067 55.467 4.267 81.067-21.333 17.067-72.533 21.333-140.8-12.8l-93.867-46.933 34.133 98.133c21.333 68.267 17.067 119.467 0 132.267l-4.267 4.267c-4.267 4.267-12.8 8.533-21.333 8.533z" />
<glyph unicode="&#xe90a;" glyph-name="wechat" d="M597.333 640c0-23.564-19.103-42.667-42.667-42.667s-42.667 19.103-42.667 42.667c0 23.564 19.103 42.667 42.667 42.667s42.667-19.103 42.667-42.667zM298.667 640c0-23.564-19.103-42.667-42.667-42.667s-42.667 19.103-42.667 42.667c0 23.564 19.103 42.667 42.667 42.667s42.667-19.103 42.667-42.667zM810.667 541.867c0 4.267 0 4.267 0 8.533-8.533 192-187.733 345.6-405.333 345.6-221.867 0-405.333-162.133-405.333-362.667 0-76.8 29.867-157.867 85.333-221.867v-209.067l183.467 89.6c21.333-8.533 38.4-12.8 59.733-17.067s46.933-4.267 72.533-4.267c4.267 0 4.267 0 4.267 0 51.2-102.4 166.4-170.667 298.667-170.667 25.6 0 55.467 4.267 81.067 8.533l25.6-17.067 128-59.733v153.6c55.467 51.2 85.333 119.467 85.333 187.733 0 119.467-89.6 226.133-213.333 268.8zM384 277.334c0-8.533 0-12.8 0-21.333-17.067 0-29.867 0-42.667 4.267-21.333 4.267-38.4 8.533-59.733 17.067l-17.067 8.533-93.867-46.933v106.667l-12.8 12.8c-46.933 51.2-72.533 115.2-72.533 174.933 0 153.6 145.067 277.333 320 277.333 166.4 0 307.2-110.933 320-256-8.533 0-12.8 0-21.333 0-174.933 0-320-123.733-320-277.333zM870.4 140.8l-17.067-12.8v-59.733l-55.467 34.133-17.067-4.267c-21.333-8.533-46.933-8.533-72.533-8.533-102.4 0-196.267 55.467-226.133 140.8-4.267 17.067-8.533 38.4-8.533 51.2 0 106.667 106.667 192 234.667 192 21.333 0 38.4 0 55.467-4.267 102.4-21.333 179.2-102.4 179.2-187.733-4.267-55.467-29.867-106.667-72.533-140.8z" />
<glyph unicode="&#xe90b;" glyph-name="qq" d="M512 853.334c153.6 0 302.933-98.133 285.867-328.533 0 0 132.267-243.2 72.533-341.333 0 0 0 0-4.267 0-8.533 0-21.333 8.533-55.467 64-17.067-46.933-46.933-89.6-89.6-119.467 51.2-12.8 81.067-29.867 81.067-55.467 0-34.133-55.467-68.267-140.8-68.267-76.8 0-136.533 21.333-149.333 55.467h-12.8c-17.067-29.867-68.267-55.467-136.533-55.467-85.333 0-153.6 25.6-157.867 64 0 8.533 4.267 12.8 8.533 21.333 21.333 21.333 51.2 38.4 85.333 38.4-38.4 34.133-72.533 72.533-89.6 119.467-25.6-55.467-42.667-64-51.2-64-4.267 0-4.267 0-4.267 0-59.733 98.133 38.4 298.667 76.8 341.333v4.267c-8.533 230.4 145.067 324.267 281.6 324.267zM512 938.667c-98.133 0-196.267-38.4-260.267-106.667-46.933-51.2-106.667-136.533-110.933-277.333-55.467-85.333-140.8-290.133-64-413.867l17.067-17.067c12.8-12.8 25.6-21.333 42.667-25.6-4.267-8.533-8.533-25.6-8.533-38.4v-8.533c8.533-85.333 102.4-140.8 238.933-140.8 55.467 0 106.667 12.8 145.067 34.133 46.933-21.333 102.4-34.133 153.6-34.133 132.267 0 226.133 64 226.133 153.6 0 8.533 0 17.067-4.267 29.867 17.067 4.267 34.133 12.8 42.667 25.6l8.533 8.533 4.267 8.533c76.8 119.467-12.8 320-59.733 405.333 4.267 145.067-51.2 234.667-98.133 281.6-64 76.8-162.133 115.2-273.067 115.2v0z" />
<glyph unicode="&#xe90c;" glyph-name="out" d="M870.4 930.134c42.667 0 81.067-12.8 110.933-42.667s42.667-64 42.667-110.933v-716.8c0-42.667-12.8-81.067-42.667-110.933s-64-42.667-110.933-42.667h-204.8c-17.067 0-25.6 4.267-38.4 12.8-8.533 8.533-12.8 21.333-12.8 38.4s4.267 25.6 12.8 38.4c8.533 8.533 21.333 12.8 38.4 12.8h204.8c17.067 0 25.6 4.267 38.4 12.8 8.533 8.533 12.8 21.333 12.8 38.4v716.8c0 17.067-4.267 29.867-12.8 38.4s-21.333 12.8-38.4 12.8h-204.8c-17.067 0-25.6 4.267-38.4 12.8-8.533 8.533-12.8 21.333-12.8 38.4s4.267 25.6 12.8 38.4c8.533 8.533 21.333 12.8 38.4 12.8h204.8zM712.533 401.067c0-4.267 0-4.267-4.267-8.533 0-4.267-4.267-4.267-8.533-8.533l-256-256c-4.267-4.267-12.8-8.533-17.067-12.8s-12.8-4.267-17.067-4.267c-8.533 0-12.8 0-21.333 4.267s-12.8 4.267-17.067 12.8-17.067 21.333-17.067 34.133 4.267 25.6 17.067 34.133l170.667 170.667h-490.667c-17.067 0-25.6 4.267-38.4 12.8-8.533 8.533-12.8 21.333-12.8 38.4s4.267 25.6 12.8 38.4c8.533 8.533 21.333 12.8 38.4 12.8h490.667l-170.667 170.667c-8.533 8.533-17.067 21.333-17.067 34.133s4.267 25.6 17.067 34.133 21.333 17.067 34.133 17.067c12.8 0 25.6-4.267 34.133-17.067l256-256c4.267-4.267 4.267-4.267 4.267-8.533s4.267-4.267 4.267-8.533c4.267-8.533 4.267-17.067 4.267-21.333 8.533-4.267 4.267-8.533 4.267-12.8z" />
<glyph unicode="&#xe90d;" glyph-name="star-choose" d="M1019.733 550.4c4.267-8.533 4.267-12.8 0-21.333s-8.533-12.8-12.8-21.333l-213.333-209.067 51.2-298.667c4.267-8.533 0-17.067-4.267-25.6s-8.533-12.8-17.067-17.067c-4.267-4.267-8.533-4.267-12.8-8.533-4.267 0-8.533-4.267-12.8-4.267h-25.6l-260.267 140.8-264.533-140.8c-8.533-4.267-17.067-4.267-25.6-4.267s-17.067 4.267-21.333 8.533c-8.533 4.267-12.8 12.8-17.067 21.333s-4.267 17.067-4.267 25.6l51.2 298.667-213.333 209.067c-8.533 4.267-12.8 12.8-12.8 21.333-4.267 8.533-4.267 17.067 0 25.6s8.533 17.067 17.067 21.333c8.533 8.533 17.067 8.533 25.6 8.533l294.4 46.933 136.533 264.533c8.533 17.067 21.333 25.6 42.667 25.6s34.133-8.533 42.667-25.6l136.533-268.8 298.667-42.667c8.533-4.267 17.067-8.533 25.6-12.8-8.533 0-4.267-8.533-4.267-17.067z" />
<glyph unicode="&#xe90e;" glyph-name="local" d="M512 439.467c34.133 0 59.733 12.8 85.333 34.133s34.133 51.2 34.133 85.333c0 34.133-12.8 59.733-34.133 85.333s-51.2 34.133-85.333 34.133c-34.133 0-59.733-12.8-85.333-34.133-25.6-25.6-34.133-51.2-34.133-85.333s12.8-59.733 34.133-85.333c25.6-25.6 51.2-34.133 85.333-34.133zM512 896c46.933 0 89.6-8.533 132.267-25.6s76.8-42.667 106.667-72.533 55.467-68.267 72.533-106.667c17.067-42.667 25.6-85.333 25.6-132.267 0-64-17.067-132.267-51.2-204.8s-72.533-140.8-115.2-204.8c-42.667-64-81.067-115.2-115.2-157.867l-55.467-64-51.2 64c-34.133 42.667-72.533 93.867-115.2 157.867s-81.067 132.267-115.2 204.8c-38.4 72.533-55.467 140.8-55.467 204.8 0 46.933 8.533 89.6 25.6 132.267s42.667 76.8 72.533 106.667c29.867 29.867 68.267 55.467 106.667 72.533 42.667 17.067 85.333 25.6 132.267 25.6z" />
<glyph unicode="&#xe90f;" glyph-name="star-half" d="M512 938.667v-878.933l-247.467-136.533c-4.267-4.267-8.533-4.267-12.8-4.267s-8.533 0-17.067 0c-17.067 0-29.867 8.533-42.667 21.333s-17.067 29.867-17.067 46.933v4.267c0 0 0 4.267 0 4.267v0l46.933 290.133-200.533 204.8c-4.267 4.267-8.533 12.8-12.8 21.333-8.533 0-8.533 8.533-8.533 17.067 0 17.067 4.267 29.867 17.067 42.667s21.333 21.333 38.4 21.333l277.333 42.667 123.733 264.533c4.267 12.8 12.8 21.333 21.333 25.6 8.533 8.533 21.333 12.8 34.133 12.8 0 0 0 0 0 0z" />
<glyph unicode="&#xe910;" glyph-name="I-of-course" d="M889.263 938.667h-754.526c-74.105 0-134.737-60.632-134.737-134.737v-754.526c0-74.105 60.632-134.737 134.737-134.737h754.526c74.105 0 134.737 60.632 134.737 134.737v754.526c0 74.105-60.632 134.737-134.737 134.737zM808.421 480.562l-134.737 107.789-134.737-107.789v377.263h269.474v-377.263z" />
<glyph unicode="&#xe911;" glyph-name="I-practice" d="M943.158 938.856h-862.316c-44.652 0-80.842-36.19-80.842-80.869v-646.845c0-23.471 11.695-50.445 31.34-62.76l445.763-223.69c21.315-13.366 48.209-13.366 69.551 0l445.763 223.69c19.618 12.315 31.582 39.289 31.582 62.76v646.872c0 44.652-36.19 80.842-80.842 80.842zM662.312 292.011l-150.312 90.516-150.312-90.516 39.855 169.715-132.069 114.257 174.188 14.686 68.339 159.528 68.339-159.528 174.188-14.686-132.096-114.257 39.882-169.715z" />
<glyph unicode="&#xe912;" glyph-name="My-article" horiz-adv-x="970" d="M835.934 938.667h-700.632c-74.105 0-134.737-60.632-134.737-134.737v-754.526c0-74.105 60.632-134.737 134.737-134.737h700.632c74.105 0 134.737 60.632 134.737 134.737v754.526c0 74.105-60.632 134.737-134.737 134.737zM216.145 696.141h296.421v-80.842h-296.421v80.842zM755.092 184.141h-538.947v80.842h538.947v-80.842zM755.092 399.72h-538.947v80.842h538.947v-80.842z" />
<glyph unicode="&#xe913;" glyph-name="my-question" d="M889.263 938.667h-754.526c-74.105 0-134.737-60.632-134.737-134.737v-592.842c0-74.105 60.632-134.737 134.737-134.737h242.526l134.737-161.684 134.737 161.684h242.526c74.105 0 134.737 60.632 134.737 134.737v592.842c0 74.105-60.632 134.737-134.737 134.737zM668.403 592.582c-3.53-11.965-8.246-22.259-14.147-30.909-5.901-8.677-12.584-16.411-20.13-23.175-7.518-6.791-15.064-13.474-22.609-20.022-8.947-7.491-17.192-14.767-24.684-21.773-7.545-7.006-14.147-14.875-19.779-23.525-5.659-8.677-9.997-18.863-13.043-30.558-3.072-11.722-4.581-26.004-4.581-42.846h-76.288c0 20.615 1.051 38.050 3.18 52.332s5.524 26.813 10.24 37.592c4.689 10.779 10.483 20.237 17.3 28.456 6.818 8.192 14.956 16.276 24.36 24.226 7.518 6.548 14.686 12.665 21.531 18.27 6.818 5.632 12.935 11.83 18.351 18.621s9.647 14.417 12.692 22.824c3.072 8.435 4.581 18.486 4.581 30.208 0 14.040-2.452 26.112-7.411 36.163-4.958 10.078-10.941 18.163-18.001 24.253-7.060 6.063-14.579 10.536-22.609 13.339-8.003 2.803-15.064 4.231-21.181 4.231-29.184 0-50.742-9.485-64.62-28.456-13.905-18.971-20.83-44.382-20.83-76.207h-80.411c0 25.762 3.88 49.179 11.641 70.252s19.079 39.101 33.9 54.083c14.821 14.983 32.714 26.57 53.652 34.762 20.938 8.165 44.355 12.261 70.252 12.261 21.666 0 41.768-3.153 60.389-9.485 18.594-6.306 34.816-15.441 48.721-27.379 13.878-11.938 24.819-26.813 32.849-44.598 7.949-17.839 11.965-37.969 11.965-60.443 0-16.411-1.752-30.558-5.282-42.496z" />
<glyph unicode="&#xe914;" glyph-name="icon-imooc" d="M512 938.667c-281.6 0-512-230.4-512-512s230.4-512 512-512 512 230.4 512 512-230.4 512-512 512zM732.8 266.667c-9.6-86.4-57.6-185.6-185.6-275.2-6.4-3.2-12.8-9.6-16-12.8 0 0 0 0 0 0 3.2 3.2 9.6 9.6 12.8 12.8 25.6 22.4 44.8 54.4 57.6 86.4s19.2 64 19.2 99.2c0 35.2-6.4 67.2-19.2 96 0 0 0 0 0 0s-3.2-3.2-3.2-3.2c-19.2-16-44.8-28.8-70.4-28.8-6.4 0-16 0-22.4 3.2-54.4 12.8-92.8 64-92.8 124.8 0 16 3.2 32 9.6 48 0 0 0 0 0 0-44.8-44.8-70.4-108.8-70.4-182.4 0-41.6 9.6-83.2 25.6-118.4 9.6-19.2 22.4-38.4 35.2-54.4l6.4-9.6c-3.2 3.2-3.2 3.2-6.4 6.4-16 16-35.2 35.2-51.2 57.6-3.2 6.4-6.4 9.6-12.8 16-32 48-60.8 108.8-57.6 185.6 0 25.6 3.2 51.2 9.6 80 3.2 16 9.6 35.2 19.2 54.4 48 115.2 96 169.6 128 224 25.6 38.4 38.4 86.4 38.4 137.6 0 19.2-3.2 41.6-6.4 60.8 16-16 102.4-112 92.8-217.6-3.2-35.2-6.4-64-9.6-89.6 0-6.4 0-16-3.2-22.4 0 0 0-3.2 0-3.2 0-6.4 0-22.4 0-22.4 0-6.4 0-12.8 3.2-19.2 0-3.2 3.2-3.2 3.2-6.4 3.2-3.2 3.2-6.4 6.4-9.6 9.6-9.6 19.2-16 32-16 0 0 0 0 0 0 9.6 0 16 3.2 22.4 6.4 9.6 6.4 16 16 19.2 25.6 0 3.2 3.2 9.6 3.2 12.8 0 12.8-3.2 22.4-12.8 32 0 0 0 0 0 0s41.6-44.8 70.4-115.2c3.2-9.6 9.6-22.4 12.8-32 12.8-32 19.2-64 19.2-99.2-3.2-6.4-3.2-19.2-6.4-32z" />
<glyph unicode="&#xe915;" glyph-name="arrow_r" d="M384 128c-12.8 0-21.333 4.267-29.867 12.8-17.067 17.067-17.067 42.667 0 59.733l226.133 226.133-226.133 226.133c-17.067 17.067-17.067 42.667 0 59.733s42.667 17.067 59.733 0l256-256c17.067-17.067 17.067-42.667 0-59.733l-256-256c-8.533-8.533-17.067-12.8-29.867-12.8z" />
<glyph unicode="&#xe916;" glyph-name="arrow_u" d="M768 256c-12.8 0-21.333 4.267-29.867 12.8l-226.133 226.133-226.133-226.133c-17.067-17.067-42.667-17.067-59.733 0s-17.067 42.667 0 59.733l256 256c17.067 17.067 42.667 17.067 59.733 0l256-256c17.067-17.067 17.067-42.667 0-59.733-8.533-8.533-17.067-12.8-29.867-12.8z" />
<glyph unicode="&#xe917;" glyph-name="arrow_d" d="M512 256c-12.8 0-21.333 4.267-29.867 12.8l-256 256c-17.067 17.067-17.067 42.667 0 59.733s42.667 17.067 59.733 0l226.133-226.133 226.133 226.133c17.067 17.067 42.667 17.067 59.733 0s17.067-42.667 0-59.733l-256-256c-8.533-8.533-17.067-12.8-29.867-12.8z" />
<glyph unicode="&#xe918;" glyph-name="tiaozhuan" d="M797.867 456.534c8.533-8.533 12.8-17.067 12.8-29.867s-4.267-21.333-12.8-29.867l-213.333-213.333c-4.267-4.267-8.533-8.533-17.067-8.533-4.267-4.267-8.533-4.267-12.8-4.267s-8.533 0-17.067 4.267c-4.267 0-8.533 4.267-12.8 8.533-8.533 8.533-12.8 17.067-12.8 29.867s4.267 21.333 12.8 29.867l183.467 183.467-183.467 183.467c-8.533 8.533-12.8 17.067-12.8 29.867s4.267 21.333 12.8 29.867c8.533 8.533 17.067 12.8 29.867 12.8s21.333-4.267 29.867-12.8l213.333-213.333zM499.2 456.534c8.533-8.533 12.8-17.067 12.8-29.867s-4.267-21.333-12.8-29.867l-213.333-213.333c-4.267-4.267-8.533-8.533-12.8-8.533-4.267-4.267-8.533-4.267-17.067-4.267s-12.8 0-17.067 4.267c-4.267 0-8.533 4.267-12.8 8.533-8.533 8.533-12.8 17.067-12.8 29.867s4.267 21.333 12.8 29.867l183.467 183.467-183.467 183.467c-8.533 8.533-12.8 17.067-12.8 29.867s4.267 21.333 12.8 29.867c8.533 8.533 17.067 12.8 29.867 12.8s21.333-4.267 29.867-12.8l213.333-213.333z" />
<glyph unicode="&#xe919;" glyph-name="buysuccess" d="M512 938.667c-282.772 0-512-229.228-512-512s229.228-512 512-512c282.772 0 512 229.228 512 512s-229.228 512-512 512zM512-22.755c-248.206 0-449.422 201.216-449.422 449.422s201.216 449.422 449.422 449.422 449.422-201.216 449.422-449.422-201.216-449.422-449.422-449.422zM423.526 338.068l-120.718 120.684-60.359-60.342 181.077-181.026 362.149 362.041-60.359 60.342-301.79-301.699z" />
<glyph unicode="&#xe91a;" glyph-name="buyfailure" d="M664.878 635.739l-152.838-152.792-152.9 152.9-60.342-60.342 152.889-152.889-148.833-148.793 60.234-60.211 148.821 148.782 148.924-148.924 60.342 60.342-148.918 148.918 152.849 152.804-60.228 60.206zM512 938.667c-282.772 0-512-229.228-512-512s229.228-512 512-512c282.772 0 512 229.228 512 512s-229.228 512-512 512zM512-22.755c-248.206 0-449.422 201.216-449.422 449.422s201.216 449.422 449.422 449.422 449.422-201.216 449.422-449.422-201.216-449.422-449.422-449.422z" />
<glyph unicode="&#xe91b;" glyph-name="pathintroduce" d="M426 234.667l256 192-256 192v-384zM512 852.667c236 0 426-190 426-426s-190-426-426-426-426 190-426 426 190 426 426 426z" />
<glyph unicode="&#xe91c;" glyph-name="pathchapter" d="M512 866.992c-238.587 0-432-193.413-432-432s193.413-432 432-432 432 193.413 432 432-193.413 432-432 432zM686 291.659h-346.667v93.333h346.667v-93.333zM686 470.326h-346.667v93.333h346.667v-93.333z" />
<glyph unicode="&#xe91d;" glyph-name="folder" d="M853.333-0h-682.667c-72.533 0-128 55.467-128 128v597.333c0 72.533 55.467 128 128 128h213.333c12.8 0 25.6-8.533 34.133-17.067l72.533-110.933h362.667c72.533 0 128-55.467 128-128v-469.333c0-72.533-55.467-128-128-128zM170.667 768c-25.6 0-42.667-17.067-42.667-42.667v-597.333c0-25.6 17.067-42.667 42.667-42.667h682.667c25.6 0 42.667 17.067 42.667 42.667v469.333c0 25.6-17.067 42.667-42.667 42.667h-384c-12.8 0-25.6 8.533-34.133 17.067l-72.533 110.933h-192z" />
<glyph unicode="&#xe91e;" glyph-name="help" d="M512-42.666c-260.267 0-469.333 209.067-469.333 469.333s209.067 469.333 469.333 469.333 469.333-209.067 469.333-469.333-209.067-469.333-469.333-469.333zM512 810.667c-213.333 0-384-170.667-384-384s170.667-384 384-384c213.333 0 384 170.667 384 384s-170.667 384-384 384zM507.733 341.334c-17.067 0-34.133 12.8-38.4 29.867-8.533 21.333 4.267 46.933 25.6 55.467 25.6 8.533 98.133 42.667 98.133 89.6 0 38.4-21.333 68.267-55.467 81.067-42.667 17.067-93.867-8.533-110.933-51.2-8.533-21.333-34.133-34.133-55.467-25.6-21.333 0-29.867 25.6-25.6 46.933 29.867 89.6 128 136.533 217.6 102.4 68.267-25.6 115.2-89.6 115.2-162.133 0-110.933-140.8-162.133-157.867-166.4-4.267 0-8.533 0-12.8 0zM512 170.667c-12.8 0-21.333 4.267-29.867 12.8s-12.8 17.067-12.8 29.867c0 4.267 0 12.8 4.267 17.067s4.267 8.533 8.533 12.8c17.067 17.067 42.667 17.067 59.733 0 4.267-4.267 8.533-8.533 8.533-12.8s4.267-8.533 4.267-17.067 0-12.8-4.267-17.067c-4.267-4.267-4.267-8.533-8.533-12.8-8.533-8.533-17.067-12.8-29.867-12.8z" />
<glyph unicode="&#xe91f;" glyph-name="loop" d="M887.467 337.067c-21.333 8.533-46.933-4.267-55.467-25.6-17.067-46.933-42.667-93.867-81.067-128-59.733-64-149.333-98.133-238.933-98.133 0 0 0 0 0 0-89.6 0-174.933 34.133-243.2 102.4l-119.467 110.933h149.333c25.6 0 42.667 17.067 42.667 42.667s-17.067 42.667-42.667 42.667h-256c0 0 0 0 0 0-4.267 0-8.533 0-8.533-4.267 0 0-4.267 0-4.267 0s-4.267 0-4.267-4.267c-4.267 0-8.533-4.267-8.533-8.533 0 0 0 0 0 0s0-4.267-4.267-4.267c0-4.267-4.267-4.267-4.267-8.533s0-4.267 0-8.533c0 0 0-4.267 0-4.267v-256c0-25.6 17.067-42.667 42.667-42.667s42.667 17.067 42.667 42.667v157.867l123.733-119.467c72.533-81.067 179.2-123.733 294.4-123.733 0 0 0 0 0 0 115.2 0 221.867 42.667 302.933 123.733 42.667 42.667 81.067 98.133 102.4 157.867 4.267 25.6-8.533 51.2-29.867 55.467zM1024 507.734c0 0 0 4.267 0 4.267v256c0 25.6-17.067 42.667-42.667 42.667s-42.667-17.067-42.667-42.667v-157.867l-123.733 119.467c-42.667 42.667-98.133 81.067-157.867 102.4-110.933 34.133-226.133 29.867-328.533-21.333-102.4-46.933-179.2-132.267-217.6-243.2-8.533-21.333 4.267-46.933 25.6-51.2 21.333-8.533 46.933 4.267 55.467 25.6 29.867 85.333 93.867 153.6 174.933 196.267 81.067 38.4 174.933 42.667 260.267 12.8 46.933-17.067 93.867-42.667 128-81.067l119.467-115.2h-149.333c-25.6 0-42.667-17.067-42.667-42.667s17.067-42.667 42.667-42.667h256c4.267 0 12.8 0 17.067 4.267 0 0 0 0 0 0 4.267 4.267 8.533 4.267 12.8 8.533 0 0 0 0 0 0s0 4.267 4.267 4.267c0 4.267 4.267 4.267 4.267 8.533 4.267 4.267 4.267 8.533 4.267 12.8z" />
<glyph unicode="&#xe920;" glyph-name="smile" d="M512-85.333c-281.6 0-512 230.4-512 512s230.4 512 512 512c281.6 0 512-230.4 512-512s-230.4-512-512-512zM512 853.334c-234.667 0-426.667-192-426.667-426.667s192-426.667 426.667-426.667c234.667 0 426.667 192 426.667 426.667s-192 426.667-426.667 426.667zM507.733 170.667c-64 0-132.267 25.6-183.467 76.8-17.067 17.067-17.067 42.667 0 59.733s42.667 17.067 59.733 0c68.267-68.267 174.933-68.267 243.2 0 17.067 17.067 42.667 17.067 59.733 0s17.067-42.667 0-59.733c-46.933-51.2-110.933-76.8-179.2-76.8zM341.333 469.334c-25.6 0-42.667 17.067-42.667 42.667v85.333c0 25.6 17.067 42.667 42.667 42.667s42.667-17.067 42.667-42.667v-85.333c0-25.6-17.067-42.667-42.667-42.667zM682.667 469.334c-25.6 0-42.667 17.067-42.667 42.667v85.333c0 25.6 17.067 42.667 42.667 42.667s42.667-17.067 42.667-42.667v-85.333c0-25.6-17.067-42.667-42.667-42.667z" />
<glyph unicode="&#xe921;" glyph-name="happy" d="M512-85.333c-281.6 0-512 230.4-512 512s230.4 512 512 512c281.6 0 512-230.4 512-512s-230.4-512-512-512zM512 853.334c-234.667 0-426.667-192-426.667-426.667s192-426.667 426.667-426.667c234.667 0 426.667 192 426.667 426.667s-192 426.667-426.667 426.667zM341.333 512c-25.6 0-42.667 17.067-42.667 42.667v85.333c0 25.6 17.067 42.667 42.667 42.667s42.667-17.067 42.667-42.667v-85.333c0-25.6-17.067-42.667-42.667-42.667zM682.667 512c-25.6 0-42.667 17.067-42.667 42.667v85.333c0 25.6 17.067 42.667 42.667 42.667s42.667-17.067 42.667-42.667v-85.333c0-25.6-17.067-42.667-42.667-42.667zM512 128c140.8 0 256 115.2 256 256h-512c0-140.8 115.2-256 256-256z" />
<glyph unicode="&#xe922;" glyph-name="shuminghao-xia" d="M896 396.8l-29.867 68.267-354.133-157.867-354.133 157.867-29.867-64 384-170.667 384 166.4zM896 537.6l-29.867 64-354.133-153.6-349.867 157.867-29.867-68.267 384-170.667 379.733 170.667z" />
<glyph unicode="&#xe923;" glyph-name="shuminghao-shang" d="M896 469.334l-29.867-68.267-354.133 157.867-354.133-157.867-25.6 68.267 384 170.667 379.733-170.667zM896 328.534l-29.867-64-354.133 153.6-354.133-157.867-29.867 64 384 170.667 384-166.4z" />
<glyph unicode="&#xe924;" glyph-name="xiangqing" d="M896 610.134c0 0 4.267-4.267 4.267-8.533s0-8.533 0-8.533v-520.533c0-38.4-12.8-68.267-38.4-93.867s-55.467-38.4-93.867-38.4h-520.533c-38.4 0-68.267 12.8-93.867 38.4s-38.4 55.467-38.4 93.867v695.467c0 38.4 12.8 68.267 38.4 93.867s55.467 38.4 93.867 38.4h345.6c4.267 0 4.267 0 8.533 0s4.267 0 8.533-4.267c4.267 0 4.267 0 8.533-4.267l264.533-264.533c0 0 4.267-4.267 4.267-4.267 8.533-8.533 8.533-8.533 8.533-12.8zM640 750.934v-110.933h110.933l-110.933 110.933zM772.267 29.867c12.8 0 21.333 4.267 29.867 12.8s12.8 17.067 12.8 29.867v477.867h-217.6c-12.8 0-21.333 4.267-29.867 12.8s-12.8 17.067-12.8 29.867v217.6h-302.933c-12.8 0-21.333-4.267-29.867-12.8s-12.8-17.067-12.8-29.867v-691.2c0-12.8 4.267-21.333 12.8-29.867s17.067-12.8 29.867-12.8h520.533zM686.933 418.134c12.8 0 21.333-4.267 29.867-12.8s12.8-17.067 12.8-29.867c0-12.8-4.267-21.333-12.8-29.867s-17.067-12.8-29.867-12.8h-345.6c-12.8 0-21.333 4.267-29.867 12.8s-12.8 17.067-12.8 29.867c0 12.8 4.267 21.333 12.8 29.867s17.067 12.8 29.867 12.8h345.6zM686.933 247.467c12.8 0 21.333-4.267 29.867-12.8s12.8-17.067 12.8-29.867c0-12.8-4.267-21.333-12.8-29.867s-17.067-12.8-29.867-12.8h-345.6c-12.8 0-21.333 4.267-29.867 12.8s-12.8 17.067-12.8 29.867c0 12.8 4.267 25.6 12.8 29.867s17.067 12.8 29.867 12.8h345.6zM337.067 507.734c-12.8 0-21.333 4.267-29.867 12.8s-12.8 17.067-12.8 29.867c0 12.8 4.267 21.333 12.8 29.867s17.067 12.8 29.867 12.8h85.333c12.8 0 21.333-4.267 29.867-12.8s12.8-17.067 12.8-29.867c0-12.8-4.267-25.6-12.8-29.867-8.533-8.533-17.067-12.8-29.867-12.8h-85.333z" />
<glyph unicode="&#xe925;" glyph-name="zhuanlanjiaqun" d="M554.667 341.334c25.6 0 51.2-8.533 76.8-17.067 21.333-8.533 46.933-25.6 59.733-42.667 21.333-17.067 34.133-38.4 42.667-59.733s17.067-46.933 17.067-76.8v-76.8c0-12.8-4.267-21.333-8.533-29.867-8.533-8.533-17.067-8.533-29.867-8.533s-21.333 4.267-29.867 8.533c-8.533 8.533-8.533 17.067-8.533 29.867v76.8c0 34.133-12.8 59.733-34.133 85.333-21.333 21.333-51.2 34.133-85.333 34.133h-315.733c-34.133 0-59.733-12.8-85.333-34.133-21.333-21.333-34.133-51.2-34.133-85.333v-76.8c0-12.8-4.267-21.333-8.533-29.867-8.533-8.533-17.067-8.533-29.867-8.533s-21.333 4.267-29.867 8.533c-8.533 8.533-8.533 17.067-8.533 29.867v76.8c0 29.867 8.533 55.467 17.067 76.8s21.333 46.933 42.667 59.733c21.333 17.067 38.4 34.133 59.733 42.667s46.933 17.067 76.8 17.067c-4.267 0 315.733 0 315.733 0zM396.8 418.134c-29.867 0-55.467 8.533-76.8 17.067s-46.933 25.6-59.733 42.667c-17.067 17.067-34.133 38.4-42.667 59.733s-17.067 46.933-17.067 76.8c0 29.867 8.533 55.467 17.067 76.8s25.6 46.933 42.667 59.733c17.067 17.067 38.4 34.133 59.733 42.667s46.933 17.067 76.8 17.067c29.867 0 55.467-8.533 76.8-17.067s46.933-25.6 59.733-42.667c17.067-17.067 34.133-38.4 42.667-59.733s17.067-46.933 17.067-76.8c0-29.867-8.533-55.467-17.067-76.8s-25.6-46.933-42.667-59.733c-17.067-17.067-38.4-34.133-59.733-42.667-25.6-8.533-51.2-17.067-76.8-17.067zM396.8 738.134c-34.133 0-59.733-12.8-85.333-34.133-21.333-21.333-34.133-51.2-34.133-85.333s12.8-59.733 34.133-85.333c21.333-21.333 51.2-34.133 85.333-34.133s59.733 12.8 85.333 34.133c21.333 21.333 34.133 51.2 34.133 85.333s-12.8 59.733-34.133 85.333c-25.6 21.333-55.467 34.133-85.333 34.133zM836.267 332.8c46.933-8.533 81.067-34.133 106.667-68.267s38.4-72.533 38.4-123.733v-76.8c0-12.8-4.267-21.333-8.533-29.867-8.533-8.533-17.067-8.533-29.867-8.533s-21.333 4.267-29.867 8.533c-8.533 8.533-8.533 17.067-8.533 29.867v76.8c0 29.867-8.533 51.2-21.333 72.533s-34.133 34.133-59.733 42.667c-8.533 4.267-17.067 8.533-21.333 17.067-8.533 8.533-8.533 21.333-4.267 29.867s8.533 17.067 17.067 21.333c0 8.533 12.8 8.533 21.333 8.533zM678.4 806.4c25.6-8.533 51.2-17.067 72.533-34.133s38.4-34.133 51.2-55.467c12.8-21.333 21.333-46.933 25.6-72.533s4.267-55.467-4.267-81.067c-8.533-34.133-25.6-64-51.2-89.6s-55.467-42.667-89.6-51.2c0 0 0 0-4.267 0s-4.267 0-8.533 0c-8.533 0-21.333 4.267-25.6 8.533-8.533 8.533-12.8 12.8-12.8 21.333-4.267 8.533-4.267 21.333 4.267 29.867s12.8 17.067 21.333 17.067c21.333 8.533 38.4 17.067 55.467 34.133s25.6 34.133 34.133 55.467c8.533 34.133 4.267 64-12.8 89.6-17.067 29.867-42.667 46.933-72.533 55.467-8.533 4.267-17.067 8.533-21.333 17.067-8.533 8.533-8.533 21.333-8.533 29.867 4.267 12.8 8.533 21.333 21.333 25.6 4.267 4.267 12.8 4.267 25.6 0z" />
<glyph unicode="&#xe926;" glyph-name="shezhi" d="M520.533 554.667c38.4 0 72.533-12.8 98.133-42.667s42.667-59.733 42.667-98.133c0-38.4-12.8-72.533-42.667-98.133s-59.733-42.667-98.133-42.667-72.533 12.8-98.133 42.667-42.667 59.733-42.667 98.133c0 38.4 12.8 72.533 42.667 98.133s64 42.667 98.133 42.667zM520.533 345.6c17.067 0 34.133 8.533 46.933 21.333s21.333 29.867 21.333 51.2c0 17.067-8.533 34.133-21.333 46.933s-29.867 21.333-46.933 21.333-34.133-8.533-46.933-21.333-21.333-29.867-21.333-46.933c0-21.333 8.533-34.133 21.333-51.2s29.867-21.333 46.933-21.333zM810.667 298.667c0-4.267 0-8.533 0-12.8s4.267-8.533 4.267-12.8c21.333-21.333 34.133-46.933 34.133-76.8s-8.533-55.467-29.867-76.8c-21.333-21.333-42.667-29.867-72.533-29.867s-51.2 8.533-72.533 29.867c-4.267 4.267-8.533 8.533-12.8 8.533s-8.533 0-12.8 0c-4.267 0-4.267-4.267-8.533-8.533s-4.267-8.533-4.267-12.8v-8.533c0-29.867-8.533-55.467-29.867-72.533s-51.2-25.6-81.067-25.6c-29.867 0-55.467 8.533-72.533 29.867s-29.867 42.667-29.867 72.533c0 8.533 0 12.8-4.267 17.067s-4.267 8.533-8.533 8.533c-4.267 0-8.533 4.267-17.067 0s-8.533 0-12.8-4.267c-21.333-21.333-46.933-34.133-72.533-34.133s-55.467 8.533-72.533 29.867c-12.8 8.533-17.067 21.333-25.6 34.133s-8.533 25.6-8.533 38.4c0 12.8 4.267 25.6 8.533 38.4s12.8 21.333 25.6 34.133c4.267 4.267 8.533 8.533 8.533 17.067s0 8.533 0 12.8-4.267 8.533-8.533 8.533-8.533 4.267-12.8 4.267h-8.533c-29.867 0-55.467 8.533-72.533 29.867s-29.867 42.667-29.867 72.533c0 29.867 8.533 55.467 29.867 72.533s42.667 29.867 72.533 29.867c4.267 0 8.533 0 17.067 4.267s8.533 4.267 8.533 8.533 4.267 8.533 0 17.067 0 8.533-4.267 12.8c-21.333 21.333-34.133 46.933-34.133 72.533s8.533 55.467 29.867 72.533c21.333 21.333 42.667 29.867 72.533 29.867s51.2-8.533 72.533-29.867c4.267-4.267 8.533-4.267 12.8-8.533s8.533 0 12.8 0c0 0 4.267 4.267 4.267 4.267s0 0 4.267 0 8.533 4.267 8.533 8.533 4.267 8.533 4.267 8.533v8.533c0 29.867 8.533 55.467 29.867 72.533s42.667 29.867 72.533 29.867 55.467-8.533 72.533-29.867 29.867-42.667 29.867-72.533c0-4.267 0-8.533 4.267-12.8s4.267-8.533 8.533-8.533c4.267 0 8.533-4.267 12.8 0s8.533 0 12.8 4.267c8.533 12.8 21.333 17.067 34.133 25.6s25.6 8.533 42.667 8.533c12.8 0 25.6-4.267 38.4-8.533s21.333-12.8 34.133-25.6c21.333-17.067 29.867-42.667 29.867-72.533s-8.533-51.2-29.867-72.533c-4.267-4.267-8.533-8.533-8.533-17.067 0-4.267 0-8.533 0-12.8 0 0 4.267-4.267 4.267-4.267s0 0 0-4.267 4.267-4.267 8.533-8.533 8.533-4.267 8.533-4.267h8.533c29.867 0 55.467-8.533 72.533-29.867s29.867-42.667 29.867-72.533c0-29.867-8.533-55.467-29.867-72.533s-42.667-29.867-72.533-29.867c-8.533 0-12.8 0-17.067-4.267s-8.533 4.267-8.533 0zM746.667 324.267c8.533 17.067 17.067 29.867 34.133 42.667s34.133 12.8 51.2 12.8c12.8 0 21.333 4.267 29.867 8.533s8.533 12.8 8.533 25.6c0 8.533-4.267 17.067-8.533 25.6s-12.8 8.533-25.6 8.533h-8.533c-17.067 0-34.133 4.267-51.2 17.067s-25.6 25.6-34.133 42.667c0 0-4.267 4.267-4.267 4.267s0 4.267 0 4.267c-4.267 17.067-4.267 34.133-4.267 51.2 4.267 17.067 12.8 34.133 21.333 42.667s12.8 17.067 12.8 25.6-4.267 17.067-8.533 25.6c-4.267 4.267-8.533 4.267-12.8 8.533s-8.533 4.267-12.8 4.267c-4.267 0-8.533 0-12.8-4.267s-8.533-4.267-8.533-8.533c-17.067-12.8-34.133-21.333-51.2-25.6s-34.133 0-51.2 4.267-29.867 17.067-42.667 34.133-12.8 29.867-12.8 51.2c0 12.8-4.267 21.333-8.533 29.867s-12.8 8.533-25.6 8.533-17.067-4.267-25.6-8.533-8.533-12.8-8.533-25.6v-8.533c0-17.067-4.267-34.133-12.8-51.2s-21.333-25.6-42.667-34.133c0 0-4.267-4.267-4.267-4.267s-4.267 0-4.267 0c-17.067-4.267-34.133-4.267-51.2 0s-29.867 12.8-42.667 21.333c-8.533 8.533-17.067 12.8-25.6 12.8s-17.067-4.267-25.6-8.533c-8.533-8.533-8.533-12.8-8.533-25.6s4.267-17.067 8.533-25.6c12.8-17.067 21.333-34.133 25.6-51.2s0-34.133-4.267-51.2c-8.533-17.067-17.067-29.867-34.133-42.667s-29.867-17.067-51.2-17.067h-4.267c-8.533 0-17.067-4.267-25.6-8.533s-8.533-12.8-8.533-25.6c0-8.533 4.267-17.067 8.533-25.6s12.8-8.533 25.6-8.533h8.533c17.067 0 34.133-4.267 51.2-17.067s25.6-25.6 34.133-42.667c8.533-17.067 12.8-34.133 8.533-51.2s-12.8-34.133-25.6-46.933c-4.267-4.267-8.533-8.533-12.8-12.8s-4.267-8.533-4.267-12.8c0-4.267 0-8.533 4.267-12.8s4.267-8.533 8.533-8.533c8.533-8.533 17.067-8.533 25.6-8.533s17.067 4.267 25.6 8.533c8.533 8.533 17.067 17.067 29.867 21.333s21.333 8.533 34.133 8.533c8.533 0 12.8 0 21.333 0s12.8-4.267 17.067-8.533c17.067-8.533 29.867-17.067 42.667-34.133s17.067-29.867 17.067-51.2v-4.267c0-12.8 4.267-21.333 8.533-25.6s12.8-8.533 25.6-8.533 17.067 4.267 25.6 8.533 8.533 12.8 8.533 25.6v8.533c0 17.067 4.267 34.133 12.8 51.2s21.333 25.6 42.667 34.133c17.067 8.533 34.133 12.8 51.2 8.533s34.133-12.8 46.933-25.6c4.267-4.267 8.533-8.533 12.8-8.533s8.533-4.267 12.8-4.267 8.533 0 12.8 4.267 8.533 4.267 8.533 8.533 4.267 8.533 8.533 8.533 4.267 8.533 4.267 12.8 0 8.533-4.267 12.8-4.267 8.533-8.533 12.8c-12.8 17.067-21.333 34.133-25.6 51.2s4.267 29.867 8.533 46.933z" />
<glyph unicode="&#xe927;" glyph-name="xieliuyan" d="M823.467 362.667c12.8 0 21.333-4.267 29.867-8.533 8.533-8.533 8.533-17.067 8.533-29.867v-200.533c0-29.867-12.8-59.733-34.133-81.067s-46.933-34.133-81.067-34.133h-524.8c-34.133 0-59.733 12.8-81.067 34.133s-34.133 46.933-34.133 81.067v529.067c0 29.867 12.8 59.733 34.133 81.067s46.933 34.133 81.067 34.133h200.533c12.8 0 21.333-4.267 25.6-8.533 8.533-8.533 8.533-17.067 8.533-25.6s-4.267-21.333-8.533-25.6c-8.533-8.533-17.067-8.533-25.6-8.533h-200.533c-12.8 0-21.333-4.267-29.867-8.533-8.533-8.533-8.533-17.067-8.533-25.6v-529.067c0-12.8 4.267-21.333 8.533-25.6 8.533-8.533 17.067-8.533 29.867-8.533h529.067c12.8 0 21.333 4.267 25.6 8.533 8.533 8.533 8.533 17.067 8.533 25.6v200.533c0 12.8 4.267 21.333 8.533 29.867 12.8-8.533 21.333-4.267 29.867-4.267zM930.133 678.4c8.533-8.533 8.533-17.067 8.533-25.6s-4.267-17.067-8.533-25.6l-375.467-375.467c-4.267-4.267-8.533-4.267-12.8-8.533-4.267 0-8.533-4.267-12.8-4.267h-149.333c-12.8 0-21.333 4.267-25.6 8.533-8.533 8.533-8.533 17.067-8.533 25.6v153.6c0 4.267 0 8.533 4.267 12.8 0 4.267 4.267 8.533 8.533 12.8l375.467 375.467c8.533 8.533 17.067 12.8 25.6 12.8s17.067-4.267 25.6-12.8l145.067-149.333zM507.733 315.734l341.333 341.333-98.133 98.133-341.333-341.333v-98.133h98.133z" />
<glyph unicode="&#xe928;" glyph-name="friends" d="M891.733 153.6c55.467 76.8 89.6 170.667 89.6 273.067 0 64-12.8 128-38.4 183.467 0 0 0 4.267 0 4.267-64 149.333-204.8 256-375.467 277.333 0 0-4.267 0-4.267 0-17.067 4.267-34.133 4.267-51.2 4.267-153.6 0-290.133-72.533-375.467-187.733 0-4.267-4.267-4.267-4.267-8.533-55.467-76.8-89.6-170.667-89.6-273.067 0-64 12.8-128 38.4-187.733 0 0 0-4.267 0-4.267 64-149.333 204.8-256 371.2-277.333 0 0 4.267 0 4.267 0 17.067 0 38.4-4.267 55.467-4.267 153.6 0 290.133 72.533 375.467 187.733 0 4.267 4.267 8.533 4.267 12.8zM584.533 298.667h-149.333l-72.533 128 72.533 128h149.333l72.533-128-72.533-128zM128 426.667c0 59.733 12.8 119.467 38.4 170.667l170.667-298.667h-187.733c-12.8 38.4-21.333 81.067-21.333 128zM682.667 554.667h187.733c12.8-38.4 21.333-81.067 21.333-128 0-59.733-12.8-119.467-38.4-170.667l-170.667 298.667zM832 640h-345.6l93.867 162.133c106.667-17.067 196.267-76.8 251.733-162.133zM486.4 810.667l-170.667-298.667-93.867 162.133c64 76.8 157.867 128 264.533 136.533zM192 213.334h345.6l-93.867-162.133c-106.667 17.067-196.267 76.8-251.733 162.133zM537.6 42.667l170.667 298.667 93.867-162.133c-64-76.8-157.867-128-264.533-136.533z" />
<glyph unicode="&#xe92a;" glyph-name="school" d="M512 713.467l290.933-158.4-291.067-159.2-291.467 158.8 291.6 158.8zM512 810.667l-470-256 470-256 384 210v-296h86v342l-470 256zM214 376.667l298-164 298 164v-172l-298-162-298 162z" />
<glyph unicode="&#xe92b;" glyph-name="set-sns" d="M512 384c42.667 0 89.6-4.267 140.8-17.067s98.133-34.133 140.8-59.733 64-59.733 64-93.867v-128h-682.667v128c0 34.133 21.333 64 64 93.867s89.6 46.933 140.8 59.733 89.6 17.067 132.267 17.067zM512 768c46.933 0 85.333-17.067 119.467-51.2s51.2-72.533 51.2-119.467-17.067-85.333-51.2-119.467-72.533-51.2-119.467-51.2-85.333 17.067-119.467 51.2-51.2 72.533-51.2 119.467 17.067 85.333 51.2 119.467 72.533 51.2 119.467 51.2zM512 302.934c-59.733 0-115.2-12.8-174.933-34.133s-85.333-42.667-85.333-55.467v-46.933h520.533v46.933c0 17.067-29.867 34.133-85.333 55.467s-115.2 34.133-174.933 34.133zM512 686.934c-25.6 0-46.933-8.533-64-25.6s-25.6-38.4-25.6-64 8.533-46.933 25.6-64 38.4-25.6 64-25.6 46.933 8.533 64 25.6 25.6 38.4 25.6 64-8.533 46.933-25.6 64-38.4 25.6-64 25.6z" />
<glyph unicode="&#xe92c;" glyph-name="hourglass_empty" d="M512 448.667l170 170v150h-340v-150zM682 234.667l-170 170-170-170v-150h340v150zM256 852.667h512v-256l-170-170 170-170v-256h-512v256l170 170-170 170v256z" />
<glyph unicode="&#xe92d;" glyph-name="news" horiz-adv-x="827" d="M403.692 544.821h-221.538c-24.458 0-44.308 26.466-44.308 59.077s19.85 59.077 44.308 59.077h221.538c24.458 0 44.308-26.466 44.308-59.077s-19.85-59.077-44.308-59.077zM643.282 347.898h-459.487c-25.364 0-45.949 26.466-45.949 59.077s20.585 59.077 45.949 59.077h459.487c25.41 0 45.949-26.466 45.949-59.077s-20.539-59.077-45.949-59.077zM643.282 150.975h-459.487c-25.364 0-45.949 26.407-45.949 59.077s20.585 59.077 45.949 59.077h459.487c25.41 0 45.949-26.407 45.949-59.077s-20.539-59.077-45.949-59.077zM643.282 938.667h-459.487c-101.501 0-183.795-91.699-183.795-204.8v-614.4c0-113.101 82.294-204.8 183.795-204.8h459.487c101.501 0 183.795 91.699 183.795 204.8v614.4c0 113.101-82.294 204.8-183.795 204.8z" />
<glyph unicode="&#xe92e;" glyph-name="Answer" d="M512 896c-260.267 0-469.333-209.067-469.333-469.333s209.067-469.333 469.333-469.333 469.333 209.067 469.333 469.333-209.067 469.333-469.333 469.333zM512 42.667c-213.333 0-384 170.667-384 384s170.667 384 384 384c213.333 0 384-170.667 384-384s-170.667-384-384-384zM682.667 469.334h-128v128c0 25.6-17.067 42.667-42.667 42.667s-42.667-17.067-42.667-42.667v-128h-128c-25.6 0-42.667-17.067-42.667-42.667s17.067-42.667 42.667-42.667h128v-128c0-25.6 17.067-42.667 42.667-42.667s42.667 17.067 42.667 42.667v128h128c25.6 0 42.667 17.067 42.667 42.667s-17.067 42.667-42.667 42.667z" />
<glyph unicode="&#xe92f;" glyph-name="peaple" d="M853.333-0c-25.6 0-42.667 17.067-42.667 42.667v85.333c0 72.533-55.467 128-128 128h-341.333c-72.533 0-128-55.467-128-128v-85.333c0-25.6-17.067-42.667-42.667-42.667s-42.667 17.067-42.667 42.667v85.333c0 119.467 93.867 213.333 213.333 213.333h341.333c119.467 0 213.333-93.867 213.333-213.333v-85.333c0-25.6-17.067-42.667-42.667-42.667zM512 426.667c-119.467 0-213.333 93.867-213.333 213.333s93.867 213.333 213.333 213.333 213.333-93.867 213.333-213.333-93.867-213.333-213.333-213.333zM512 768c-72.533 0-128-55.467-128-128s55.467-128 128-128 128 55.467 128 128-55.467 128-128 128z" />
<glyph unicode="&#xe930;" glyph-name="schedule" d="M512 896c-260.267 0-469.333-209.067-469.333-469.333s209.067-469.333 469.333-469.333 469.333 209.067 469.333 469.333-209.067 469.333-469.333 469.333zM512 42.667c-213.333 0-384 170.667-384 384s170.667 384 384 384c213.333 0 384-170.667 384-384s-170.667-384-384-384zM699.733 379.734l-145.067 72.533v230.4c0 25.6-17.067 42.667-42.667 42.667s-42.667-17.067-42.667-42.667v-256c0-17.067 8.533-29.867 25.6-38.4l170.667-85.333c4.267-4.267 8.533-4.267 17.067-4.267 17.067 0 29.867 8.533 38.4 25.6s0 42.667-21.333 55.467z" />
<glyph unicode="&#xe931;" glyph-name="feedback" d="M128-0c-4.267 0-12.8 0-17.067 4.267-17.067 4.267-25.6 21.333-25.6 38.4v682.667c0 72.533 55.467 128 128 128h597.333c72.533 0 128-55.467 128-128v-426.667c0-72.533-55.467-128-128-128h-494.933l-157.867-157.867c-8.533-8.533-17.067-12.8-29.867-12.8zM213.333 768c-25.6 0-42.667-17.067-42.667-42.667v-580.267l98.133 98.133c8.533 8.533 17.067 12.8 29.867 12.8h512c25.6 0 42.667 17.067 42.667 42.667v426.667c0 25.6-17.067 42.667-42.667 42.667h-597.333zM512 469.334c-25.6 0-42.667 17.067-42.667 42.667v128c0 25.6 17.067 42.667 42.667 42.667s42.667-17.067 42.667-42.667v-128c0-25.6-17.067-42.667-42.667-42.667zM512 341.334c-4.267 0-12.8 0-17.067 4.267-4.267 0-8.533 4.267-12.8 8.533-8.533 8.533-12.8 17.067-12.8 29.867 0 4.267 0 4.267 0 8.533s0 4.267 4.267 8.533c0 4.267 4.267 4.267 4.267 8.533s4.267 4.267 4.267 4.267c17.067 17.067 42.667 17.067 59.733 0 8.533-8.533 12.8-17.067 12.8-29.867s-4.267-21.333-12.8-29.867c-8.533-8.533-17.067-12.8-29.867-12.8z" />
<glyph unicode="&#xe932;" glyph-name="sync" d="M42.667 469.334h256c25.6 0 42.667 17.067 42.667 42.667s-17.067 42.667-42.667 42.667h-149.333l119.467 115.2c34.133 34.133 81.067 64 128 81.067 85.333 29.867 179.2 25.6 260.267-12.8s145.067-106.667 174.933-196.267c8.533-21.333 34.133-34.133 55.467-25.6s34.133 34.133 25.6 55.467c-38.4 106.667-115.2 192-217.6 243.2s-217.6 55.467-324.267 17.067c-59.733-25.6-115.2-59.733-157.867-102.4l-128-119.467v157.867c0 25.6-17.067 42.667-42.667 42.667s-42.667-17.067-42.667-42.667v-256c0 0 0-4.267 0-4.267 0-4.267 0-8.533 0-8.533 0-4.267 4.267-4.267 4.267-8.533 0 0 0-4.267 4.267-4.267 0 0 0 0 0 0 4.267-4.267 8.533-8.533 12.8-8.533 0 0 0 0 0 0 8.533-8.533 17.067-8.533 21.333-8.533zM1024 349.867c0 4.267 0 4.267 0 8.533s-4.267 4.267-4.267 8.533c0 0 0 4.267-4.267 4.267 0 0 0 0 0 0-4.267 4.267-4.267 4.267-8.533 4.267 0 0-4.267 4.267-4.267 4.267s-4.267 0-4.267 0-8.533 0-12.8 4.267c0 0 0 0 0 0h-256c-25.6 0-42.667-17.067-42.667-42.667s17.067-42.667 42.667-42.667h149.333l-119.467-115.2c-132.267-132.267-349.867-132.267-482.133 0-34.133 34.133-64 81.067-81.067 128-8.533 21.333-34.133 34.133-55.467 25.6s-34.133-34.133-25.6-55.467c21.333-59.733 55.467-115.2 102.4-157.867 85.333-85.333 192-123.733 302.933-123.733s217.6 42.667 298.667 123.733l128 119.467v-157.867c0-25.6 17.067-42.667 42.667-42.667s42.667 17.067 42.667 42.667v256c-8.533 4.267-8.533 4.267-8.533 8.533z" />
<glyph unicode="&#xe933;" glyph-name="qr-code" d="M597.333 853.334h-512v-512h512v512zM512 426.667h-341.333v341.333h341.333v-341.333zM256 682.667h170.667v-170.667h-170.667v170.667zM853.333 768h85.333v85.333h-170.667v-85.333h-85.333v-170.667h85.333v-85.333h-85.333v-85.333h85.333v85.333h85.333v-85.333h85.333v85.333h-85.333v85.333h85.333v85.333h-170.667v85.333zM341.333 256h85.333v-85.333h-85.333v85.333zM85.333 256h170.667v-85.333h-170.667v85.333zM597.333 256h-85.333v-85.333h-85.333v-85.333h-85.333v85.333h-85.333v-85.333h-170.667v-85.333h341.333v85.333h85.333v-85.333h85.333v85.333h170.667v-85.333h85.333v170.667h-256zM853.333 256h85.333v-85.333h-85.333v85.333zM768 341.334h-85.333v-85.333h170.667v170.667h-85.333z" />
<glyph unicode="&#xe934;" glyph-name="phone" d="M725.333 896h-426.667c-72.533 0-128-55.467-128-128v-682.667c0-72.533 55.467-128 128-128h426.667c72.533 0 128 55.467 128 128v682.667c0 72.533-55.467 128-128 128zM768 85.334c0-25.6-17.067-42.667-42.667-42.667h-426.667c-25.6 0-42.667 17.067-42.667 42.667v682.667c0 25.6 17.067 42.667 42.667 42.667h426.667c25.6 0 42.667-17.067 42.667-42.667v-682.667zM541.867 200.534c-8.533 8.533-25.6 12.8-38.4 12.8-4.267 0-4.267 0-8.533-4.267-4.267 0-4.267 0-8.533-4.267-4.267 0-4.267-4.267-4.267-4.267-4.267-4.267-8.533-8.533-8.533-12.8s-4.267-8.533-4.267-17.067c0-12.8 4.267-21.333 12.8-29.867s17.067-12.8 29.867-12.8 21.333 4.267 29.867 12.8c8.533 8.533 12.8 17.067 12.8 29.867 0 4.267 0 12.8-4.267 17.067 0 4.267-4.267 8.533-8.533 12.8z" />
<glyph unicode="&#xe935;" glyph-name="mail" d="M853.333 42.667h-682.667c-72.533 0-128 55.467-128 128v512c0 72.533 55.467 128 128 128h682.667c72.533 0 128-55.467 128-128v-512c0-72.533-55.467-128-128-128zM170.667 725.334c-25.6 0-42.667-17.067-42.667-42.667v-512c0-25.6 17.067-42.667 42.667-42.667h682.667c25.6 0 42.667 17.067 42.667 42.667v512c0 25.6-17.067 42.667-42.667 42.667h-682.667zM512 341.334c-8.533 0-21.333 4.267-25.6 8.533l-256 213.333c-17.067 17.067-21.333 42.667-4.267 59.733s42.667 21.333 59.733 4.267l230.4-192 230.4 192c17.067 17.067 46.933 12.8 59.733-4.267s12.8-46.933-4.267-59.733l-256-213.333c-12.8-4.267-25.6-8.533-34.133-8.533z" />
<glyph unicode="&#xe936;" glyph-name="arrow_back" d="M810.667 469.334h-494.933l226.133 226.133c17.067 17.067 17.067 42.667 0 59.733s-42.667 17.067-59.733 0l-298.667-298.667c-4.267-4.267-8.533-8.533-8.533-12.8-4.267-8.533-4.267-21.333 0-34.133 4.267-4.267 4.267-8.533 8.533-12.8l298.667-298.667c8.533-8.533 21.333-12.8 29.867-12.8s21.333 4.267 29.867 12.8c17.067 17.067 17.067 42.667 0 59.733l-226.133 226.133h494.933c25.6 0 42.667 17.067 42.667 42.667s-17.067 42.667-42.667 42.667z" />
<glyph unicode="&#xe937;" glyph-name="arrow_downward" d="M840.533 456.534l-298.667 298.667c-4.267 4.267-8.533 8.533-12.8 8.533-8.533 4.267-21.333 4.267-34.133 0-4.267-4.267-8.533-4.267-12.8-8.533l-298.667-298.667c-17.067-17.067-17.067-42.667 0-59.733s42.667-17.067 59.733 0l226.133 226.133v-494.933c0-25.6 17.067-42.667 42.667-42.667s42.667 17.067 42.667 42.667v494.933l226.133-226.133c8.533-8.533 21.333-12.8 29.867-12.8s21.333 4.267 29.867 12.8c17.067 17.067 17.067 42.667 0 59.733z" />
<glyph unicode="&#xe938;" glyph-name="arrow_forward" d="M849.067 409.6c4.267 8.533 4.267 21.333 0 34.133-4.267 4.267-4.267 8.533-8.533 12.8l-298.667 298.667c-17.067 17.067-42.667 17.067-59.733 0s-17.067-42.667 0-59.733l226.133-226.133h-494.933c-25.6 0-42.667-17.067-42.667-42.667s17.067-42.667 42.667-42.667h494.933l-226.133-226.133c-17.067-17.067-17.067-42.667 0-59.733 8.533-8.533 21.333-12.8 29.867-12.8s21.333 4.267 29.867 12.8l298.667 298.667c4.267 4.267 8.533 8.533 8.533 12.8z" />
<glyph unicode="&#xe939;" glyph-name="arrow_upward" d="M512 85.334c-25.6 0-42.667 17.067-42.667 42.667v597.333c0 25.6 17.067 42.667 42.667 42.667s42.667-17.067 42.667-42.667v-597.333c0-25.6-17.067-42.667-42.667-42.667zM512 85.334c-12.8 0-21.333 4.267-29.867 12.8l-298.667 298.667c-17.067 17.067-17.067 42.667 0 59.733s42.667 17.067 59.733 0l268.8-268.8 268.8 268.8c17.067 17.067 42.667 17.067 59.733 0s17.067-42.667 0-59.733l-298.667-298.667c-8.533-8.533-17.067-12.8-29.867-12.8z" />
<glyph unicode="&#xe93a;" glyph-name="lightbulb_outline" d="M634 380.667c58 40 92 104 92 174 0 118-96 214-214 214s-214-96-214-214c0-70 34-134 92-174l36-26v-98h172v98zM512 852.667c164 0 298-134 298-298 0-102-50-190-128-244v-98c0-24-18-42-42-42h-256c-24 0-42 18-42 42v98c-78 54-128 142-128 244 0 164 134 298 298 298zM384 42.667v42h256v-42c0-24-18-42-42-42h-172c-24 0-42 18-42 42z" />
<glyph unicode="&#xe93b;" glyph-name="imooc" d="M537.6-85.333h-4.267l-4.267 4.267c0 0 0 4.267 0 12.8 21.333 17.067 102.4 89.6 115.2 196.267 4.267 38.4-4.267 85.333-17.067 119.467 0 0-55.467-51.2-119.467-34.133-145.067 38.4-85.333 187.733-85.333 187.733l-17.067 17.067c0 0-81.067-85.333-81.067-217.6 0-89.6 64-170.667 81.067-187.733v-4.267l-4.267-4.267h-4.267c-21.333 17.067-145.067 123.733-145.067 302.933 0 238.933 200.533 341.333 238.933 507.733 12.8 46.933 4.267 102.4 0 119.467 0 4.267 0 4.267 4.267 4.267h17.067c12.8-17.067 102.4-149.333 81.067-268.8-21.333-149.333 0-187.733 38.4-196.267 29.867-4.267 46.933 21.333 46.933 46.933 0 17.067-4.267 29.867-12.8 34.133v4.267l4.267 4.267h4.267c21.333-17.067 106.667-115.2 102.4-290.133 0-204.8-204.8-337.067-238.933-358.4z" />
<glyph unicode="&#xe93c;" glyph-name="album" horiz-adv-x="1008" d="M271.441 876.902h-146.286c-21.13 0-39.010-14.629-39.010-27.632v-812.698c0-6.502 3.251-14.629 9.752-21.13s17.879-6.502 27.632-6.502h146.286c1.625 0 1.625 867.962 1.625 867.962zM815.949 876.902h-79.644v-281.194c0-14.629-17.879-27.632-39.010-27.632-9.752 0-21.13 3.251-27.632 6.502-6.502 6.502-9.752 14.629-9.752 21.13v281.194h-308.825v-869.587h466.489c58.514 0 104.025 34.133 104.025 76.394v716.8c0 42.26-48.762 76.394-105.651 76.394z" />
<glyph unicode="&#xe93d;" glyph-name="lock" d="M810.667 512h-42.667v128c0 140.8-115.2 256-256 256s-256-115.2-256-256v-128h-42.667c-72.533 0-128-55.467-128-128v-298.667c0-72.533 55.467-128 128-128h597.333c72.533 0 128 55.467 128 128v298.667c0 72.533-55.467 128-128 128zM341.333 640c0 93.867 76.8 170.667 170.667 170.667s170.667-76.8 170.667-170.667v-128h-341.333v128zM853.333 85.334c0-25.6-17.067-42.667-42.667-42.667h-597.333c-25.6 0-42.667 17.067-42.667 42.667v298.667c0 25.6 17.067 42.667 42.667 42.667h597.333c25.6 0 42.667-17.067 42.667-42.667v-298.667z" />
<glyph unicode="&#xe93e;" glyph-name="menu" d="M832 853.334c12.8 0 21.333-4.267 29.867-8.533 8.533-8.533 8.533-17.067 8.533-29.867v-776.533c0-12.8-4.267-21.333-8.533-29.867-8.533-4.267-17.067-8.533-29.867-8.533h-520.533c-38.4 0-68.267 12.8-93.867 38.4s-38.4 59.733-38.4 93.867v584.533c0 38.4 12.8 68.267 38.4 93.867s59.733 38.4 93.867 38.4h520.533zM311.467 776.534c-17.067 0-29.867-4.267-38.4-17.067-12.8-12.8-17.067-25.6-17.067-38.4v-465.067c8.533 4.267 21.333 8.533 29.867 12.8 8.533 0 21.333 4.267 29.867 4.267h486.4v503.467h-490.667zM311.467 76.8h486.4v115.2h-486.4c-17.067 0-29.867-4.267-38.4-17.067-12.8-12.8-17.067-25.6-17.067-38.4 0-17.067 4.267-29.867 17.067-42.667 8.533-8.533 21.333-17.067 38.4-17.067z" />
<glyph unicode="&#xe93f;" glyph-name="comment1" d="M896 938.667c70.693 0 128-57.307 128-128v-618.679c0-70.693-57.307-128-128-128h-234.679l-149.321-149.321-149.321 149.321h-234.679c-70.693 0-128 57.307-128 128v618.679c0 70.693 57.307 128 128 128h768zM878.545 810.667h-733.091c-9.635 0-17.455-7.597-17.455-16.958v-573.762c0-9.327 7.82-16.958 17.455-16.958h267.369l99.177-96.322 99.177 96.322h267.369c9.635 0 17.455 7.631 17.455 16.958v573.762c0 9.361-7.82 16.958-17.455 16.958zM320 490.667c0-35.36-28.64-64-64-64s-64 28.64-64 64c0 35.36 28.64 64 64 64s64-28.64 64-64zM576 490.667c0-35.36-28.64-64-64-64s-64 28.64-64 64c0 35.36 28.64 64 64 64s64-28.64 64-64zM832 490.667c0-35.36-28.64-64-64-64s-64 28.64-64 64c0 35.36 28.64 64 64 64s64-28.64 64-64z" />
<glyph unicode="&#xe940;" glyph-name="uniE940" horiz-adv-x="1170" d="M0 587.581v263.314c0 51.2 43.886 87.771 95.086 87.771h980.114c51.2 0 95.086-36.571 95.086-87.771v-263.314c-95.086-21.943-153.6-95.086-153.6-182.857s65.829-160.914 153.6-182.857v-226.743c0-51.2-36.571-87.771-87.771-87.771h-987.429c-51.2 7.314-95.086 43.886-95.086 95.086v226.743c95.086 21.943 153.6 95.086 153.6 182.857s-58.514 153.6-153.6 175.543zM548.571 368.153h-160.914c-21.943 0-43.886-21.943-43.886-43.886s21.943-43.886 43.886-43.886h160.914v-124.343c0-21.943 14.629-43.886 36.571-43.886s36.571 21.943 36.571 43.886v124.343h160.914c21.943 0 36.571 21.943 36.571 43.886s-14.629 43.886-36.571 43.886h-160.914v80.457h160.914c21.943 0 36.571 21.943 36.571 43.886s-14.629 36.571-36.571 36.571h-146.286l131.657 131.657c14.629 14.629 14.629 43.886 0 58.514-7.314 21.943-36.571 21.943-51.2 0l-131.657-131.657-131.657 131.657c-7.314 14.629-21.943 14.629-36.571 14.629s-29.257-14.629-29.257-29.257c-7.314-14.629 0-29.257 7.314-36.571l131.657-131.657h-146.286c-14.629-7.314-36.571-29.257-36.571-51.2s14.629-43.886 36.571-43.886h160.914v-73.143h7.314z" />
<glyph unicode="&#xe941;" glyph-name="center" d="M921.6 588.8l-384 298.667c-17.067 12.8-38.4 12.8-51.2 0l-384-298.667c-12.8-8.533-17.067-21.333-17.067-34.133v-469.333c0-72.533 55.467-128 128-128h597.333c72.533 0 128 55.467 128 128v469.333c0 12.8-4.267 25.6-17.067 34.133zM597.333 42.667h-170.667v341.333h170.667v-341.333zM853.333 85.334c0-25.6-17.067-42.667-42.667-42.667h-128v384c0 25.6-17.067 42.667-42.667 42.667h-256c-25.6 0-42.667-17.067-42.667-42.667v-384h-128c-25.6 0-42.667 17.067-42.667 42.667v448l341.333 264.533 341.333-264.533v-448z" />
<glyph unicode="&#xe942;" glyph-name="qianbao" d="M810.667-42.666h-640c-72.533 0-128 55.467-128 128v682.667c0 72.533 55.467 128 128 128h640c72.533 0 128-55.467 128-128v-42.667c0-25.6-17.067-42.667-42.667-42.667s-42.667 17.067-42.667 42.667v42.667c0 25.6-17.067 42.667-42.667 42.667h-640c-25.6 0-42.667-17.067-42.667-42.667v-682.667c0-25.6 17.067-42.667 42.667-42.667h640c25.6 0 42.667 17.067 42.667 42.667v42.667c0 25.6 17.067 42.667 42.667 42.667s42.667-17.067 42.667-42.667v-42.667c0-72.533-55.467-128-128-128zM896 238.934h-320c-102.4 0-187.733 85.333-187.733 187.733s85.333 187.733 187.733 187.733h320c46.933 0 81.067-38.4 81.067-81.067v-213.333c0-46.933-34.133-81.067-81.067-81.067zM576 537.6c-59.733 0-110.933-51.2-110.933-110.933s51.2-110.933 110.933-110.933h320c0 0 4.267 0 4.267 4.267v213.333l-324.267 4.267zM640 426.667c0-23.564-19.103-42.667-42.667-42.667s-42.667 19.103-42.667 42.667c0 23.564 19.103 42.667 42.667 42.667s42.667-19.103 42.667-42.667z" />
<glyph unicode="&#xe943;" glyph-name="gouwuche" d="M256-84.48c-47.128 0-85.333 38.205-85.333 85.333s38.205 85.333 85.333 85.333c47.128 0 85.333-38.205 85.333-85.333v0c0-47.128-38.205-85.333-85.333-85.333v0zM825.173-84.48c-47.128 0-85.333 38.205-85.333 85.333s38.205 85.333 85.333 85.333v0c47.128 0 85.333-38.205 85.333-85.333s-38.205-85.333-85.333-85.333v0zM966.827 768.854c0.868 0.047 1.883 0.074 2.905 0.074 31.576 0 57.173-25.597 57.173-57.173 0-6.436-1.063-12.624-3.024-18.397l0.119 0.403-170.667-512c-8.223-22.786-29.491-38.856-54.566-39.253l-0.048-0.001h-512c-28.008 0.104-51.189 20.637-55.425 47.468l-0.042 0.319-108.373 631.467h-65.707c-0.030 0-0.066 0-0.102 0-31.576 0-57.173 25.597-57.173 57.173 0 1.201 0.037 2.393 0.11 3.576l-0.008-0.162c0 0.002 0 0.004 0 0.006 0 31.105 25.215 56.32 56.32 56.32 0.3 0 0.599-0.002 0.898-0.007l-0.045 0.001h113.493c0.021 0 0.046 0 0.071 0 27.956 0 51.226-20.065 56.194-46.579l0.055-0.354 20.48-123.733zM398.507 371.2c-0.047 0-0.103 0-0.159 0-31.576 0-57.173-25.597-57.173-57.173 0-1.502 0.058-2.99 0.172-4.462l-0.012 0.195c0-0.002 0-0.004 0-0.006 0-31.105 25.215-56.32 56.32-56.32 0.3 0 0.599 0.002 0.898 0.007l-0.045-0.001h284.16c0.254-0.004 0.553-0.006 0.853-0.006 31.105 0 56.32 25.215 56.32 56.32 0 0.002 0 0.004 0 0.007v0c0 31.576-25.597 57.173-57.173 57.173v0z" />
<glyph unicode="&#xe944;" glyph-name="shoucang" horiz-adv-x="1070" d="M769.579 938.667v0c168.927-10.998 301.778-150.707 301.778-321.445 0-5.938-0.161-11.838-0.478-17.697l0.035 0.817c-4.77-95.61-37.906-182.644-91.087-253.83l0.867 1.213c-119.36-158.87-254.194-296.569-404.864-415.033l-4.736-3.589c-10.089-8.83-23.34-14.271-37.858-14.435h-0.034c-14.852 0.104-28.413 5.547-38.877 14.504l0.082-0.069c-154.772 121.637-288.792 259.381-402.81 412.87l-4.084 5.752c-52.314 69.973-85.45 157.007-90.177 251.525l-0.043 1.092c-0.277 4.995-0.434 10.84-0.434 16.721 0 171.689 134.335 312.002 303.63 321.566l0.847 0.038c97.118-1.923 182.363-51.066 233.941-125.348l0.631-0.961c51.94 75.116 136.856 124.237 233.356 126.303l0.315 0.005zM529.593 253.895l-107.362 101.047c-7.917 6.033-17.947 9.665-28.825 9.665-26.408 0-47.817-21.408-47.817-47.817 0-12.006 4.425-22.978 11.733-31.376l-0.049 0.058 138.939-129.015c8.888-7.766 20.569-12.534 33.361-12.631h0.020c13.112 0.036 25.102 4.807 34.359 12.693l-0.075-0.062 138.037 129.015c8.399 8.608 13.581 20.39 13.581 33.381s-5.181 24.773-13.59 33.391l0.009-0.010c-8.51 8.615-20.323 13.95-33.381 13.95s-24.871-5.336-33.377-13.945l-0.005-0.005z" />
<glyph unicode="&#xe945;" glyph-name="zhuanqian" horiz-adv-x="964" d="M946.915 306.222c-33.303 136.154-118.673 248.123-233.297 315.821l-2.337 1.277c-10.512 6.132-21.023 12.263-32.411 17.519-59.134 16.14-127.030 25.413-197.092 25.413s-137.959-9.273-202.529-26.66l5.437 1.246c-168.543-71.016-284.708-234.841-284.708-425.797 0-1.512 0.007-3.022 0.022-4.53l-0.002 0.23c-1.186-12.437-1.862-26.891-1.862-41.503 0-40.332 5.153-79.46 14.835-116.762l-0.71 3.22c18.89-80.838 89.994-140.254 175.107-141.029l0.086-0.001h590.399c0.898-0.017 1.957-0.027 3.019-0.027 61.078 0 114.511 32.728 143.72 81.604l0.423 0.764c16.569 24.859 27.824 54.617 31.451 86.688l0.083 0.909c4.48 26.31 7.041 56.617 7.041 87.522 0 47.633-6.083 93.844-17.515 137.901l0.838-3.804zM613.174 117.89h-78.837v-44.674s0-7.008 0-10.512c0-28.059-22.747-50.806-50.806-50.806s-50.806 22.747-50.806 50.806v0s0 7.008 0 10.512v0 38.542s0 0 0 0h-82.34c-22.738 0-41.17 18.433-41.17 41.17s18.433 41.17 41.17 41.17h78.837v36.79h-78.837c-1.8-0.279-3.876-0.438-5.989-0.438-22.738 0-41.17 18.433-41.17 41.17s18.433 41.17 41.17 41.17c2.113 0 4.189-0.159 6.217-0.466l-0.228 0.028h73.581v5.256l-87.596 87.596c-11.388 11.388-7.008 33.287 7.884 49.054s38.542 20.147 49.054 8.76l87.596-87.596 80.589 87.596c6.769 5.332 15.418 8.552 24.82 8.552 12.092 0 22.94-5.326 30.326-13.761l0.040-0.047c15.767-16.643 23.651-30.659 7.884-48.178l-95.48-98.108h84.092c20.016-3.026 35.181-20.108 35.181-40.732s-15.165-37.707-34.953-40.704l-0.228-0.028h-78.837v-36.79h78.837c20.016-3.026 35.181-20.108 35.181-40.732s-15.165-37.707-34.953-40.704l-0.228-0.028zM254.029 693.398c68.077 21.673 146.378 34.163 227.597 34.163 0.054 0 0.108 0 0.161 0h-0.008c80.957-0.205 159-12.355 232.564-34.778l-5.689 1.491c9.183 13.371 17.159 28.696 23.179 44.97l0.472 1.456c4.288 12.338 8.523 27.911 11.815 43.829l0.449 2.597c1.734 6.512 2.73 13.989 2.73 21.699 0 26.226-11.525 49.76-29.787 65.813l-0.098 0.084c-19.567 17.965-45.769 28.976-74.543 28.976-17.838 0-34.688-4.232-49.601-11.746l0.633 0.289s-5.256 0-7.884 0c-26.966 25.67-63.54 41.462-103.802 41.462s-76.836-15.793-103.864-41.521l0.062 0.059c-1.104-0.76-2.47-1.214-3.942-1.214s-2.838 0.454-3.966 1.229l0.024-0.015c-14.39 7.203-31.353 11.42-49.3 11.42-8.605 0-16.984-0.969-25.033-2.805l0.752 0.144c-46.070-8.65-80.463-48.562-80.463-96.508 0-4.269 0.273-8.475 0.802-12.6l-0.051 0.489c4.895-37.334 17.95-70.873 37.322-99.828l-0.532 0.845z" />
<glyph unicode="&#xe946;" glyph-name="zhankai" d="M460.416 448.615l-365.479 366.577c-13.539 13.005-21.951 31.259-21.951 51.479 0 0.037 0 0.074 0 0.111v-0.006c1.822 39.768 34.506 71.32 74.559 71.32 19.531 0 37.309-7.502 50.611-19.782l-0.051 0.046 313.895-316.090 313.895 316.090c13.101 12.248 30.755 19.769 50.166 19.769 0.499 0 0.996-0.005 1.492-0.015l-0.074 0.001c19.851-0.071 37.941-7.553 51.659-19.822l-0.075 0.066c13.176-13.277 21.469-31.418 21.949-51.493l0.002-0.091c0-0.031 0-0.068 0-0.105 0-20.22-8.412-38.474-21.927-51.456l-0.024-0.023-365.479-366.577c-7.519-6.646-16.223-12.183-25.717-16.227l-0.624-0.236c-7.512-2.786-16.189-4.399-25.243-4.399s-17.731 1.612-25.761 4.565l0.518-0.167c-10.192 4-18.936 9.571-26.391 16.509l0.050-0.046zM877.479 427.762c40.365-0.608 72.927-33.17 73.534-73.477l0.001-0.058c0-0.031 0-0.068 0-0.105 0-20.22-8.412-38.474-21.927-51.456l-0.024-0.023-365.479-365.479c-7.319-7.38-16.076-13.32-25.817-17.368l-0.523-0.193c-7.512-2.786-16.189-4.399-25.243-4.399s-17.731 1.612-25.761 4.565l0.518-0.167c-10.378 3.937-19.189 9.926-26.305 17.522l-0.035 0.038-365.479 365.479c-13.539 13.005-21.951 31.259-21.951 51.479 0 0.037 0 0.074 0 0.111v-0.006c0.482 20.166 8.774 38.307 21.955 51.589l-0.005-0.005c13.013 13.604 31.311 22.061 51.584 22.061s38.571-8.456 51.559-22.034l0.025-0.027 313.895-316.090 313.895 316.090c13.005 13.539 31.259 21.951 51.479 21.951 0.037 0 0.074 0 0.111 0h-0.006z" />
<glyph unicode="&#xe947;" glyph-name="zixun" d="M697.739 844.712c0.92 0.011 2.008 0.017 3.096 0.017 76.618 0 145.947-31.214 195.96-81.62l0.017-0.018c24.565-25.205 44.681-54.888 58.985-87.687l0.736-1.895c12.677-29.201 20.052-63.211 20.052-98.945 0-3.008-0.052-6.005-0.156-8.987l0.012 0.433v-92.901c0.004-0.564 0.007-1.232 0.007-1.901 0-38.476-8.311-75.009-23.235-107.905l0.667 1.642c-14.854-34.292-34.99-63.571-59.719-88.252l-0.004-0.004c-24.49-25.049-53.829-45.239-86.514-59.068l-1.741-0.655c-31.866-14.161-69.033-22.454-108.125-22.562h-464.546l-185.802-185.802v557.41c-0.010 0.827-0.015 1.803-0.015 2.78 0 37.949 8.318 73.957 23.23 106.297l-0.652-1.578c15.041 34.696 35.157 64.379 59.783 89.646l-0.061-0.063c50.031 50.423 119.359 81.638 195.978 81.638 1.088 0 2.176-0.007 3.261-0.019l-0.165 0.002z" />
</font>
</defs>
</svg>
